<svg width="413" height="238" viewBox="0 0 413 238" fill="none" xmlns="http://www.w3.org/2000/svg">
<path d="M0 0V238L206.5 118.996L0 0Z" fill="#DB7233"/>
<path d="M413 0H0L206.5 118.996L413 0Z" fill="#DB7233"/>
<path d="M206.5 118.996L413 238V0L206.5 118.996Z" fill="#A54310"/>
<path d="M0 238H413L206.5 118.996L0 238Z" fill="#A54310"/>
<path d="M404.979 4.57861H8.02075V233.404H404.979V4.57861Z" fill="#02652E"/>
<path d="M402.965 5.74512H10.0432V231.088H402.965V5.74512Z" fill="#009547"/>
<path d="M13.5889 206.788V9.1123H399.773C399.764 9.1123 90.6983 52.2692 13.5889 206.788Z" fill="url(#paint0_radial_259_151)" fill-opacity="0.04"/>
<path d="M409.471 5.60285C409.471 6.18184 409.015 6.64503 408.456 6.64503C407.897 6.64503 407.44 6.17293 407.44 5.60285C407.44 5.02386 407.897 4.56067 408.456 4.56067C409.015 4.55176 409.471 5.02386 409.471 5.60285Z" fill="#6F2E08"/>
<path d="M405.375 2.35175C405.375 2.93074 404.919 3.40284 404.368 3.40284C403.809 3.40284 403.361 2.93074 403.361 2.35175C403.361 1.77276 403.817 1.30957 404.368 1.30957C404.919 1.30957 405.375 1.77276 405.375 2.35175Z" fill="#6F2E08"/>
<path d="M409.007 230.58C409.566 230.58 410.014 231.052 410.014 231.622C410.014 232.201 409.558 232.664 409.007 232.664C408.447 232.664 408 232.192 408 231.622C407.991 231.052 408.447 230.58 409.007 230.58Z" fill="#6F2E08"/>
<path d="M405.866 234.82C406.425 234.82 406.881 235.292 406.881 235.871C406.881 236.45 406.425 236.913 405.866 236.913C405.306 236.913 404.859 236.441 404.859 235.871C404.85 235.292 405.306 234.82 405.866 234.82Z" fill="#6F2E08"/>
<path d="M3.40771 5.60285C3.40771 6.18184 3.86383 6.64503 4.41461 6.64503C4.974 6.64503 5.43012 6.17293 5.43012 5.60285C5.43012 5.02386 4.974 4.56067 4.41461 4.56067C3.86383 4.55176 3.40771 5.02386 3.40771 5.60285Z" fill="#6F2E08"/>
<path d="M7.50415 2.35175C7.50415 2.93074 7.96027 3.40284 8.51965 3.40284C9.07904 3.40284 9.52655 2.93074 9.52655 2.35175C9.52655 1.77276 9.07043 1.30957 8.51965 1.30957C7.96027 1.30957 7.50415 1.77276 7.50415 2.35175Z" fill="#6F2E08"/>
<path d="M3.87262 230.58C3.31323 230.58 2.86572 231.052 2.86572 231.622C2.86572 232.201 3.32184 232.664 3.87262 232.664C4.43201 232.664 4.88812 232.192 4.88812 231.622C4.88812 231.052 4.43201 230.58 3.87262 230.58Z" fill="#6F2E08"/>
<path d="M7.01373 234.82C6.45435 234.82 6.00684 235.292 6.00684 235.871C6.00684 236.45 6.46295 236.913 7.01373 236.913C7.57312 236.913 8.02924 236.441 8.02924 235.871C8.02924 235.292 7.57312 234.82 7.01373 234.82Z" fill="#6F2E08"/>
<path d="M142.299 26.09C141.499 26.09 140.764 25.91 140.094 25.55C139.424 25.19 138.894 24.67 138.504 23.99C138.114 23.3 137.919 22.495 137.919 21.575C137.919 20.605 138.144 19.68 138.594 18.8C139.054 17.91 139.644 17.2 140.364 16.67C141.094 16.13 141.839 15.86 142.599 15.86C142.919 15.86 143.234 15.91 143.544 16.01C143.864 16.11 144.149 16.235 144.399 16.385C144.519 16.265 144.669 16.205 144.849 16.205C145.049 16.205 145.214 16.275 145.344 16.415C145.474 16.545 145.539 16.705 145.539 16.895V17.855C145.539 18.055 145.464 18.23 145.314 18.38C145.174 18.53 144.999 18.605 144.789 18.605C144.589 18.605 144.419 18.545 144.279 18.425C144.149 18.305 144.084 18.165 144.084 18.005V17.9C143.714 17.51 143.184 17.315 142.494 17.315C141.994 17.315 141.504 17.52 141.024 17.93C140.544 18.33 140.154 18.86 139.854 19.52C139.564 20.18 139.419 20.865 139.419 21.575C139.419 22.205 139.549 22.755 139.809 23.225C140.069 23.685 140.414 24.04 140.844 24.29C141.284 24.53 141.769 24.65 142.299 24.65C143.269 24.65 144.069 24.235 144.699 23.405C144.789 23.295 144.879 23.22 144.969 23.18C145.059 23.13 145.164 23.105 145.284 23.105C145.494 23.105 145.669 23.175 145.809 23.315C145.959 23.445 146.034 23.625 146.034 23.855C146.034 24.025 145.989 24.175 145.899 24.305C145.489 24.885 144.969 25.33 144.339 25.64C143.719 25.94 143.039 26.09 142.299 26.09ZM148.098 26.105C147.908 26.105 147.738 26.035 147.588 25.895C147.448 25.745 147.378 25.575 147.378 25.385V16.745C147.378 16.545 147.448 16.375 147.588 16.235C147.738 16.085 147.918 16.01 148.128 16.01C148.328 16.01 148.493 16.085 148.623 16.235C148.753 16.375 148.818 16.545 148.818 16.745V19.97C149.148 19.55 149.523 19.215 149.943 18.965C150.363 18.705 150.783 18.575 151.203 18.575C151.993 18.575 152.548 18.975 152.868 19.775C153.188 20.565 153.348 21.82 153.348 23.54C153.348 24.51 153.333 25.135 153.303 25.415C153.293 25.605 153.218 25.765 153.078 25.895C152.948 26.025 152.788 26.09 152.598 26.09C152.388 26.09 152.218 26.025 152.088 25.895C151.958 25.755 151.893 25.585 151.893 25.385C151.893 25.185 151.898 25.02 151.908 24.89L151.923 23.645C151.923 22.195 151.843 21.225 151.683 20.735C151.533 20.245 151.343 20 151.113 20C150.823 20 150.528 20.135 150.228 20.405C149.928 20.665 149.668 20.96 149.448 21.29C149.238 21.61 149.088 21.865 148.998 22.055C148.878 22.325 148.818 22.68 148.818 23.12V25.355C148.818 25.585 148.748 25.77 148.608 25.91C148.468 26.04 148.298 26.105 148.098 26.105ZM157.913 26.09C157.343 26.09 156.818 25.935 156.338 25.625C155.868 25.315 155.498 24.895 155.228 24.365C154.958 23.825 154.823 23.24 154.823 22.61C154.823 21.9 154.983 21.24 155.303 20.63C155.623 20.01 156.053 19.52 156.593 19.16C157.133 18.79 157.713 18.605 158.333 18.605C158.903 18.605 159.423 18.765 159.893 19.085C160.373 19.405 160.748 19.83 161.018 20.36C161.298 20.89 161.438 21.46 161.438 22.07C161.438 22.79 161.278 23.46 160.958 24.08C160.638 24.69 160.203 25.18 159.653 25.55C159.113 25.91 158.533 26.09 157.913 26.09ZM157.913 24.74C158.263 24.74 158.598 24.62 158.918 24.38C159.238 24.14 159.493 23.82 159.683 23.42C159.873 23.02 159.968 22.595 159.968 22.145C159.968 21.765 159.893 21.41 159.743 21.08C159.593 20.74 159.388 20.47 159.128 20.27C158.868 20.06 158.583 19.955 158.273 19.955C157.923 19.955 157.593 20.08 157.283 20.33C156.983 20.57 156.743 20.895 156.563 21.305C156.383 21.705 156.293 22.135 156.293 22.595C156.293 23.045 156.368 23.43 156.518 23.75C156.678 24.07 156.878 24.315 157.118 24.485C157.368 24.655 157.633 24.74 157.913 24.74ZM165.662 26.09C165.092 26.09 164.567 25.935 164.087 25.625C163.617 25.315 163.247 24.895 162.977 24.365C162.707 23.825 162.572 23.24 162.572 22.61C162.572 21.9 162.732 21.24 163.052 20.63C163.372 20.01 163.802 19.52 164.342 19.16C164.882 18.79 165.462 18.605 166.082 18.605C166.652 18.605 167.172 18.765 167.642 19.085C168.122 19.405 168.497 19.83 168.767 20.36C169.047 20.89 169.187 21.46 169.187 22.07C169.187 22.79 169.027 23.46 168.707 24.08C168.387 24.69 167.952 25.18 167.402 25.55C166.862 25.91 166.282 26.09 165.662 26.09ZM165.662 24.74C166.012 24.74 166.347 24.62 166.667 24.38C166.987 24.14 167.242 23.82 167.432 23.42C167.622 23.02 167.717 22.595 167.717 22.145C167.717 21.765 167.642 21.41 167.492 21.08C167.342 20.74 167.137 20.47 166.877 20.27C166.617 20.06 166.332 19.955 166.022 19.955C165.672 19.955 165.342 20.08 165.032 20.33C164.732 20.57 164.492 20.895 164.312 21.305C164.132 21.705 164.042 22.135 164.042 22.595C164.042 23.045 164.117 23.43 164.267 23.75C164.427 24.07 164.627 24.315 164.867 24.485C165.117 24.655 165.382 24.74 165.662 24.74ZM172.961 26.09C172.381 26.09 171.876 25.965 171.446 25.715C171.026 25.455 170.701 25.16 170.471 24.83C170.251 24.49 170.141 24.215 170.141 24.005C170.141 23.805 170.211 23.64 170.351 23.51C170.491 23.37 170.656 23.3 170.846 23.3C171.016 23.3 171.156 23.345 171.266 23.435C171.386 23.525 171.471 23.645 171.521 23.795C171.631 24.105 171.811 24.35 172.061 24.53C172.311 24.71 172.621 24.8 172.991 24.8C173.381 24.8 173.686 24.705 173.906 24.515C174.126 24.325 174.236 24.11 174.236 23.87C174.236 23.64 174.141 23.46 173.951 23.33C173.771 23.19 173.401 23.035 172.841 22.865C172.021 22.615 171.431 22.32 171.071 21.98C170.711 21.63 170.531 21.175 170.531 20.615C170.531 20.025 170.766 19.545 171.236 19.175C171.706 18.795 172.361 18.605 173.201 18.605C173.981 18.605 174.586 18.775 175.016 19.115C175.456 19.455 175.676 19.91 175.676 20.48C175.676 20.79 175.611 21.03 175.481 21.2C175.351 21.36 175.166 21.44 174.926 21.44C174.716 21.44 174.546 21.375 174.416 21.245C174.286 21.115 174.221 20.975 174.221 20.825C174.221 20.775 174.231 20.715 174.251 20.645C174.281 20.565 174.296 20.505 174.296 20.465C174.296 20.285 174.206 20.14 174.026 20.03C173.856 19.92 173.591 19.865 173.231 19.865C172.781 19.865 172.446 19.93 172.226 20.06C172.016 20.19 171.911 20.365 171.911 20.585C171.911 20.815 172.021 21.005 172.241 21.155C172.461 21.295 172.856 21.455 173.426 21.635C174.256 21.895 174.831 22.18 175.151 22.49C175.481 22.8 175.646 23.235 175.646 23.795C175.646 24.175 175.531 24.545 175.301 24.905C175.081 25.255 174.766 25.54 174.356 25.76C173.956 25.98 173.491 26.09 172.961 26.09ZM180.413 26.09C179.703 26.09 179.063 25.94 178.493 25.64C177.933 25.33 177.493 24.895 177.173 24.335C176.853 23.765 176.693 23.095 176.693 22.325C176.693 21.695 176.833 21.095 177.113 20.525C177.403 19.945 177.803 19.48 178.313 19.13C178.833 18.78 179.423 18.605 180.083 18.605C180.693 18.605 181.213 18.73 181.643 18.98C182.083 19.22 182.413 19.51 182.633 19.85C182.853 20.19 182.963 20.495 182.963 20.765C182.963 20.895 182.923 21.02 182.843 21.14C182.763 21.26 182.648 21.365 182.498 21.455L178.478 23.765C178.618 24.075 178.863 24.315 179.213 24.485C179.573 24.655 179.973 24.74 180.413 24.74C180.993 24.74 181.488 24.525 181.898 24.095C182.058 23.935 182.223 23.855 182.393 23.855C182.593 23.855 182.758 23.92 182.888 24.05C183.028 24.18 183.098 24.34 183.098 24.53C183.098 24.69 183.038 24.84 182.918 24.98C182.638 25.29 182.263 25.555 181.793 25.775C181.333 25.985 180.873 26.09 180.413 26.09ZM181.478 20.585C181.358 20.375 181.188 20.22 180.968 20.12C180.748 20.01 180.488 19.955 180.188 19.955C179.618 19.955 179.138 20.15 178.748 20.54C178.368 20.93 178.148 21.41 178.088 21.98C178.068 22.13 178.058 22.31 178.058 22.52L181.478 20.585ZM191.193 26.105C191.003 26.105 190.833 26.035 190.683 25.895C190.543 25.755 190.473 25.59 190.473 25.4V20.045H189.288C189.088 20.045 188.918 19.975 188.778 19.835C188.638 19.685 188.568 19.515 188.568 19.325C188.568 19.105 188.643 18.93 188.793 18.8C188.943 18.66 189.118 18.59 189.318 18.59H190.473V16.985C190.473 16.795 190.543 16.625 190.683 16.475C190.823 16.325 190.993 16.25 191.193 16.25C191.403 16.25 191.573 16.325 191.703 16.475C191.843 16.615 191.913 16.785 191.913 16.985V18.59H193.188C193.388 18.59 193.558 18.66 193.698 18.8C193.838 18.94 193.908 19.115 193.908 19.325C193.908 19.515 193.838 19.685 193.698 19.835C193.558 19.975 193.388 20.045 193.188 20.045H191.913V25.4C191.913 25.59 191.843 25.755 191.703 25.895C191.563 26.035 191.393 26.105 191.193 26.105ZM195.53 26.105C195.34 26.105 195.17 26.035 195.02 25.895C194.88 25.745 194.81 25.575 194.81 25.385V16.745C194.81 16.545 194.88 16.375 195.02 16.235C195.17 16.085 195.35 16.01 195.56 16.01C195.76 16.01 195.925 16.085 196.055 16.235C196.185 16.375 196.25 16.545 196.25 16.745V19.97C196.58 19.55 196.955 19.215 197.375 18.965C197.795 18.705 198.215 18.575 198.635 18.575C199.425 18.575 199.98 18.975 200.3 19.775C200.62 20.565 200.78 21.82 200.78 23.54C200.78 24.51 200.765 25.135 200.735 25.415C200.725 25.605 200.65 25.765 200.51 25.895C200.38 26.025 200.22 26.09 200.03 26.09C199.82 26.09 199.65 26.025 199.52 25.895C199.39 25.755 199.325 25.585 199.325 25.385C199.325 25.185 199.33 25.02 199.34 24.89L199.355 23.645C199.355 22.195 199.275 21.225 199.115 20.735C198.965 20.245 198.775 20 198.545 20C198.255 20 197.96 20.135 197.66 20.405C197.36 20.665 197.1 20.96 196.88 21.29C196.67 21.61 196.52 21.865 196.43 22.055C196.31 22.325 196.25 22.68 196.25 23.12V25.355C196.25 25.585 196.18 25.77 196.04 25.91C195.9 26.04 195.73 26.105 195.53 26.105ZM205.975 26.09C205.265 26.09 204.625 25.94 204.055 25.64C203.495 25.33 203.055 24.895 202.735 24.335C202.415 23.765 202.255 23.095 202.255 22.325C202.255 21.695 202.395 21.095 202.675 20.525C202.965 19.945 203.365 19.48 203.875 19.13C204.395 18.78 204.985 18.605 205.645 18.605C206.255 18.605 206.775 18.73 207.205 18.98C207.645 19.22 207.975 19.51 208.195 19.85C208.415 20.19 208.525 20.495 208.525 20.765C208.525 20.895 208.485 21.02 208.405 21.14C208.325 21.26 208.21 21.365 208.06 21.455L204.04 23.765C204.18 24.075 204.425 24.315 204.775 24.485C205.135 24.655 205.535 24.74 205.975 24.74C206.555 24.74 207.05 24.525 207.46 24.095C207.62 23.935 207.785 23.855 207.955 23.855C208.155 23.855 208.32 23.92 208.45 24.05C208.59 24.18 208.66 24.34 208.66 24.53C208.66 24.69 208.6 24.84 208.48 24.98C208.2 25.29 207.825 25.555 207.355 25.775C206.895 25.985 206.435 26.09 205.975 26.09ZM207.04 20.585C206.92 20.375 206.75 20.22 206.53 20.12C206.31 20.01 206.05 19.955 205.75 19.955C205.18 19.955 204.7 20.15 204.31 20.54C203.93 20.93 203.71 21.41 203.65 21.98C203.63 22.13 203.62 22.31 203.62 22.52L207.04 20.585ZM216.184 26.09C215.994 26.09 215.824 26.02 215.674 25.88C215.524 25.74 215.449 25.58 215.449 25.4V19.325C215.449 19.125 215.519 18.955 215.659 18.815C215.809 18.675 215.984 18.605 216.184 18.605C216.384 18.605 216.554 18.675 216.694 18.815C216.844 18.955 216.919 19.125 216.919 19.325V19.775C217.409 18.975 218.079 18.575 218.929 18.575C219.439 18.575 219.804 18.715 220.024 18.995C220.254 19.275 220.369 19.61 220.369 20V20.45C220.369 20.65 220.299 20.82 220.159 20.96C220.029 21.09 219.864 21.155 219.664 21.155C219.424 21.155 219.244 21.085 219.124 20.945C219.014 20.805 218.959 20.635 218.959 20.435V20.24C218.959 20.08 218.849 20 218.629 20C218.449 20 218.239 20.09 217.999 20.27C217.769 20.45 217.579 20.64 217.429 20.84C217.219 21.1 217.079 21.36 217.009 21.62C216.949 21.88 216.919 22.19 216.919 22.55L216.904 25.4C216.904 25.58 216.829 25.74 216.679 25.88C216.529 26.02 216.364 26.09 216.184 26.09ZM222.309 17.975C222.119 17.975 221.949 17.9 221.799 17.75C221.659 17.6 221.594 17.43 221.604 17.24L221.619 16.685C221.629 16.495 221.704 16.33 221.844 16.19C221.984 16.05 222.149 15.98 222.339 15.98C222.529 15.98 222.694 16.055 222.834 16.205C222.984 16.355 223.054 16.52 223.044 16.7L223.029 17.27C223.019 17.47 222.944 17.64 222.804 17.78C222.674 17.91 222.509 17.975 222.309 17.975ZM222.234 26.09C222.034 26.09 221.859 26.02 221.709 25.88C221.569 25.73 221.499 25.555 221.499 25.355L221.574 19.385C221.574 19.185 221.644 19.015 221.784 18.875C221.934 18.725 222.109 18.65 222.309 18.65C222.519 18.65 222.694 18.725 222.834 18.875C222.974 19.015 223.044 19.185 223.044 19.385L222.969 25.355C222.969 25.555 222.894 25.73 222.744 25.88C222.604 26.02 222.434 26.09 222.234 26.09ZM227.712 28.61C227.132 28.61 226.542 28.54 225.942 28.4C225.782 28.36 225.647 28.275 225.537 28.145C225.437 28.015 225.387 27.865 225.387 27.695C225.387 27.495 225.457 27.325 225.597 27.185C225.747 27.045 225.917 26.975 226.107 26.975C226.227 26.975 226.387 27 226.587 27.05C226.627 27.06 226.752 27.08 226.962 27.11C227.172 27.15 227.417 27.17 227.697 27.17C228.727 27.17 229.282 26.655 229.362 25.625L229.392 25.265C229.222 25.495 228.997 25.67 228.717 25.79C228.437 25.9 228.137 25.955 227.817 25.955C227.287 25.955 226.787 25.825 226.317 25.565C225.857 25.295 225.487 24.91 225.207 24.41C224.927 23.9 224.787 23.305 224.787 22.625C224.787 21.915 224.942 21.25 225.252 20.63C225.572 20.01 226.002 19.515 226.542 19.145C227.092 18.775 227.697 18.59 228.357 18.59C228.727 18.59 229.142 18.68 229.602 18.86C229.682 18.58 229.912 18.44 230.292 18.44C230.502 18.44 230.672 18.5 230.802 18.62C230.942 18.73 231.007 18.915 230.997 19.175L230.847 25.505C230.827 26.535 230.532 27.31 229.962 27.83C229.392 28.35 228.642 28.61 227.712 28.61ZM227.727 24.545C228.277 24.545 228.707 24.35 229.017 23.96C229.327 23.56 229.482 22.945 229.482 22.115V20.3C229.342 20.22 229.172 20.155 228.972 20.105C228.782 20.055 228.597 20.03 228.417 20.03C228.007 20.03 227.627 20.14 227.277 20.36C226.937 20.57 226.662 20.865 226.452 21.245C226.252 21.625 226.152 22.05 226.152 22.52C226.152 23.13 226.302 23.62 226.602 23.99C226.912 24.36 227.287 24.545 227.727 24.545ZM234.084 26.105C233.894 26.105 233.724 26.035 233.574 25.895C233.434 25.745 233.364 25.575 233.364 25.385V16.745C233.364 16.545 233.434 16.375 233.574 16.235C233.724 16.085 233.904 16.01 234.114 16.01C234.314 16.01 234.479 16.085 234.609 16.235C234.739 16.375 234.804 16.545 234.804 16.745V19.97C235.134 19.55 235.509 19.215 235.929 18.965C236.349 18.705 236.769 18.575 237.189 18.575C237.979 18.575 238.534 18.975 238.854 19.775C239.174 20.565 239.334 21.82 239.334 23.54C239.334 24.51 239.319 25.135 239.289 25.415C239.279 25.605 239.204 25.765 239.064 25.895C238.934 26.025 238.774 26.09 238.584 26.09C238.374 26.09 238.204 26.025 238.074 25.895C237.944 25.755 237.879 25.585 237.879 25.385C237.879 25.185 237.884 25.02 237.894 24.89L237.909 23.645C237.909 22.195 237.829 21.225 237.669 20.735C237.519 20.245 237.329 20 237.099 20C236.809 20 236.514 20.135 236.214 20.405C235.914 20.665 235.654 20.96 235.434 21.29C235.224 21.61 235.074 21.865 234.984 22.055C234.864 22.325 234.804 22.68 234.804 23.12V25.355C234.804 25.585 234.734 25.77 234.594 25.91C234.454 26.04 234.284 26.105 234.084 26.105ZM242.594 26.105C242.404 26.105 242.234 26.035 242.084 25.895C241.944 25.755 241.874 25.59 241.874 25.4V20.045H240.689C240.489 20.045 240.319 19.975 240.179 19.835C240.039 19.685 239.969 19.515 239.969 19.325C239.969 19.105 240.044 18.93 240.194 18.8C240.344 18.66 240.519 18.59 240.719 18.59H241.874V16.985C241.874 16.795 241.944 16.625 242.084 16.475C242.224 16.325 242.394 16.25 242.594 16.25C242.804 16.25 242.974 16.325 243.104 16.475C243.244 16.615 243.314 16.785 243.314 16.985V18.59H244.589C244.789 18.59 244.959 18.66 245.099 18.8C245.239 18.94 245.309 19.115 245.309 19.325C245.309 19.515 245.239 19.685 245.099 19.835C244.959 19.975 244.789 20.045 244.589 20.045H243.314V25.4C243.314 25.59 243.244 25.755 243.104 25.895C242.964 26.035 242.794 26.105 242.594 26.105ZM254.168 26.09C253.598 26.09 253.073 25.935 252.593 25.625C252.123 25.315 251.753 24.895 251.483 24.365C251.213 23.825 251.078 23.24 251.078 22.61C251.078 21.9 251.238 21.24 251.558 20.63C251.878 20.01 252.308 19.52 252.848 19.16C253.388 18.79 253.968 18.605 254.588 18.605C255.158 18.605 255.678 18.765 256.148 19.085C256.628 19.405 257.003 19.83 257.273 20.36C257.553 20.89 257.693 21.46 257.693 22.07C257.693 22.79 257.533 23.46 257.213 24.08C256.893 24.69 256.458 25.18 255.908 25.55C255.368 25.91 254.788 26.09 254.168 26.09ZM254.168 24.74C254.518 24.74 254.853 24.62 255.173 24.38C255.493 24.14 255.748 23.82 255.938 23.42C256.128 23.02 256.223 22.595 256.223 22.145C256.223 21.765 256.148 21.41 255.998 21.08C255.848 20.74 255.643 20.47 255.383 20.27C255.123 20.06 254.838 19.955 254.528 19.955C254.178 19.955 253.848 20.08 253.538 20.33C253.238 20.57 252.998 20.895 252.818 21.305C252.638 21.705 252.548 22.135 252.548 22.595C252.548 23.045 252.623 23.43 252.773 23.75C252.933 24.07 253.133 24.315 253.373 24.485C253.623 24.655 253.888 24.74 254.168 24.74ZM260.027 26.09C259.837 26.09 259.667 26.02 259.517 25.88C259.377 25.74 259.307 25.58 259.307 25.4V19.31C259.307 19.11 259.382 18.94 259.532 18.8C259.682 18.66 259.857 18.59 260.057 18.59C260.247 18.59 260.407 18.66 260.537 18.8C260.677 18.94 260.747 19.11 260.747 19.31V20.45C261.027 19.85 261.382 19.395 261.812 19.085C262.242 18.765 262.712 18.605 263.222 18.605C263.782 18.605 264.227 18.735 264.557 18.995C264.887 19.255 265.127 19.685 265.277 20.285C265.427 20.875 265.502 21.695 265.502 22.745L265.487 25.37C265.487 25.56 265.422 25.73 265.292 25.88C265.162 26.02 264.997 26.09 264.797 26.09C264.607 26.09 264.437 26.02 264.287 25.88C264.147 25.73 264.077 25.565 264.077 25.385V22.895C264.077 22.115 264.042 21.515 263.972 21.095C263.902 20.675 263.797 20.39 263.657 20.24C263.517 20.08 263.327 20 263.087 20C262.787 20 262.487 20.13 262.187 20.39C261.887 20.64 261.607 21 261.347 21.47C261.117 21.88 260.957 22.28 260.867 22.67C260.777 23.06 260.732 23.53 260.732 24.08V25.34C260.732 25.56 260.667 25.74 260.537 25.88C260.417 26.02 260.247 26.09 260.027 26.09ZM270.691 26.09C269.981 26.09 269.341 25.94 268.771 25.64C268.211 25.33 267.771 24.895 267.451 24.335C267.131 23.765 266.971 23.095 266.971 22.325C266.971 21.695 267.111 21.095 267.391 20.525C267.681 19.945 268.081 19.48 268.591 19.13C269.111 18.78 269.701 18.605 270.361 18.605C270.971 18.605 271.491 18.73 271.921 18.98C272.361 19.22 272.691 19.51 272.911 19.85C273.131 20.19 273.241 20.495 273.241 20.765C273.241 20.895 273.201 21.02 273.121 21.14C273.041 21.26 272.926 21.365 272.776 21.455L268.756 23.765C268.896 24.075 269.141 24.315 269.491 24.485C269.851 24.655 270.251 24.74 270.691 24.74C271.271 24.74 271.766 24.525 272.176 24.095C272.336 23.935 272.501 23.855 272.671 23.855C272.871 23.855 273.036 23.92 273.166 24.05C273.306 24.18 273.376 24.34 273.376 24.53C273.376 24.69 273.316 24.84 273.196 24.98C272.916 25.29 272.541 25.555 272.071 25.775C271.611 25.985 271.151 26.09 270.691 26.09ZM271.756 20.585C271.636 20.375 271.466 20.22 271.246 20.12C271.026 20.01 270.766 19.955 270.466 19.955C269.896 19.955 269.416 20.15 269.026 20.54C268.646 20.93 268.426 21.41 268.366 21.98C268.346 22.13 268.336 22.31 268.336 22.52L271.756 20.585ZM275.795 23.57C275.595 23.57 275.42 23.5 275.27 23.36C275.13 23.21 275.06 23.035 275.06 22.835V16.715C275.06 16.515 275.13 16.34 275.27 16.19C275.42 16.04 275.595 15.965 275.795 15.965C276.005 15.965 276.18 16.04 276.32 16.19C276.46 16.34 276.53 16.515 276.53 16.715V22.835C276.53 23.035 276.46 23.21 276.32 23.36C276.18 23.5 276.005 23.57 275.795 23.57ZM275.675 26.09C275.445 26.09 275.255 26.01 275.105 25.85C274.965 25.69 274.895 25.49 274.895 25.25C274.895 25 274.985 24.775 275.165 24.575C275.345 24.375 275.55 24.275 275.78 24.275C276.01 24.275 276.195 24.36 276.335 24.53C276.485 24.69 276.56 24.885 276.56 25.115C276.56 25.385 276.47 25.615 276.29 25.805C276.11 25.995 275.905 26.09 275.675 26.09Z" fill="black"/>
<defs>
<radialGradient id="paint0_radial_259_151" cx="0" cy="0" r="1" gradientUnits="userSpaceOnUse" gradientTransform="translate(-18.002 -132.206) scale(305.238 315.933)">
<stop offset="0.00221549" stop-color="white"/>
<stop offset="0.9427" stop-color="white"/>
</radialGradient>
</defs>
</svg>
