<svg width="42" height="39" viewBox="0 0 42 39" fill="none" xmlns="http://www.w3.org/2000/svg">
<path d="M21.6133 0.501953C23.3379 0.662777 25.2373 0.6469 27.2109 0.708008C29.1626 0.768443 31.1624 0.904702 32.9922 1.38379C34.8283 1.8646 36.5199 2.69725 37.8301 4.16602C39.1412 5.6359 40.0313 7.69851 40.3457 10.5664H40.3447C40.7288 13.8501 40.3566 17.8516 40.0898 21.5449L40.0908 21.5459C39.914 25.0767 39.4208 28.7138 38.2041 31.6133C36.9825 34.524 34.9977 36.7606 31.8242 37.3193C27.163 38.2887 22.9723 38.3511 18.4023 38.4541L18.3789 38.4551L18.3564 38.4531C16.5613 38.3281 14.7048 38.2701 12.9688 38.1025C11.2186 37.9336 9.51912 37.6486 7.96875 37.0479C6.41117 36.4443 5.005 35.5229 3.8457 34.0898C2.68916 32.6601 1.79861 30.7457 1.22949 28.1855L1.22754 28.1797C0.401734 24.2395 0.501303 19.8706 0.507812 15.9756L0.500977 14.4639C0.494207 12.9324 0.513898 11.3527 0.794922 9.81934L0.796875 9.80469L0.800781 9.79102C1.40994 7.29391 2.52581 5.46738 4.00391 4.14062C5.47707 2.81831 7.28123 2.01805 9.22754 1.52148C11.1714 1.02558 13.2791 0.828096 15.377 0.724609C16.4269 0.67282 17.4813 0.64436 18.5137 0.615234C19.5482 0.586047 20.5613 0.555935 21.5391 0.500977L21.5762 0.499023L21.6133 0.501953ZM35.7295 4.55664C32.2903 3.09441 25.5435 1.96575 18.9482 2.14844C15.6409 2.24007 12.4009 2.66092 9.65918 3.51953C6.91552 4.37874 4.724 5.65931 3.43359 7.43262C2.9117 8.24959 2.59496 9.17664 2.40625 10.1836C2.23705 14.3345 1.79263 19.7187 2.28809 24.498C2.78793 29.3192 4.22285 33.2711 7.60059 34.7988L8.07617 34.9912C13.0136 36.9014 18.6124 36.6759 23.8086 36.3955L23.8213 36.3945C28.3485 36.266 31.8415 35.9606 34.29 34.0312C36.7084 32.1256 38.2303 28.5206 38.4521 21.4199L38.4531 21.4102V21.3994C38.7137 17.7947 39.0344 14.2886 38.7656 11.292C38.499 8.31945 37.661 5.97629 35.7295 4.55664Z" fill="#1C1C1C" stroke="black"/>
<path d="M38.9521 21.4353C38.5078 35.7112 32.8279 36.6413 23.8353 36.8947C10.9809 37.3829 0.0246347 38.5646 1.65058 15.9782C1.17732 7.55969 3.61315 4.66841 9.4124 2.92607C13.8445 1.68782 31.2199 0.939629 35.9807 4.12036C40.5753 7.54566 39.3008 15.3189 38.9521 21.4353Z" fill="#FFCE55"/>
<path d="M22.1185 30.892C14.5005 30.892 7.51419 29.1763 2.06567 26.3206C3.62933 39.4391 16.5364 36.8064 23.8356 36.8957C29.1778 36.6404 36.8759 36.6128 38.1026 28.1316C33.4165 29.8857 27.9525 30.892 22.1185 30.892Z" fill="#FF9B57"/>
<path d="M2.23986 16.8517C2.24536 13.7874 2.02646 10.4888 3.61145 8.0226C6.97934 1.06959 33.6623 0.996645 37.8951 6.26529C34.9612 -0.304734 5.93989 0.296155 3.02185 7.14909C1.43686 9.61624 1.65577 12.9148 1.65026 15.9786C1.642 21.6574 1.41449 28.9882 4.48672 32.9873C2.03472 28.8578 2.23194 22.1386 2.23986 16.8517Z" fill="#FFF097"/>
<ellipse cx="1.52887" cy="0.978471" rx="1.52887" ry="0.978471" transform="matrix(0.917022 0.398837 -0.229349 0.973344 34.4167 5.43774)" fill="white"/>
</svg>
