<svg width="42" height="40" viewBox="0 0 42 40" fill="none" xmlns="http://www.w3.org/2000/svg">
<path d="M19.5987 37.8215C-3.63699 39.103 -4.4775 3.84787 19.5987 2.17267C24.7882 2.00679 31.789 1.74511 36.1092 6.03942C41.082 10.9809 40.8606 24.7014 37.638 30.8719C34.0904 37.6673 25.3739 37.8215 19.5987 37.8215Z" fill="#EE3F6C"/>
<path d="M5.47271 6.19479C9.54384 1.40633 16.4835 -0.254858 23.0831 0.0383608C34.9656 -0.566768 42.0655 6.02539 41.9791 17.9247C42.1578 23.1606 41.1824 28.4911 39.4368 31.8356C33.657 41.5726 20.0139 41.1252 10.3913 38.0388C-3.19529 33.7235 -1.93163 14.1794 5.47271 6.19479ZM2.13373 24.2085C3.70984 42.4569 33.3434 40.4546 37.6382 30.8719C40.8595 24.7003 41.0809 10.9809 36.1093 6.03825C31.7892 1.74394 24.7884 2.00561 19.5989 2.17267C8.48542 2.5313 1.41197 10.5931 2.13373 24.2085Z" fill="#1C1C1C"/>
<path d="M19.8675 29.3111C27.3606 29.3111 34.2323 27.4139 39.5924 24.2563C39.2096 26.8146 38.5421 29.1405 37.6381 30.8706C33.5024 40.2782 4.97576 42.27 2.24092 25.3883C7.2471 27.8614 13.3198 29.3111 19.8675 29.3111Z" fill="#B11F6F"/>
<path d="M17.0704 11.871L21.025 15.878L24.9797 11.871C25.8917 10.947 27.3698 10.947 28.2818 11.871C29.1938 12.7951 29.1938 14.2927 28.2818 15.2168L24.3271 19.2237L28.2818 23.2306C29.1938 24.1547 29.1938 25.6523 28.2818 26.5764C27.3698 27.5004 25.8917 27.5004 24.9797 26.5764L21.025 22.5694L17.0704 26.5764C16.1584 27.5004 14.6803 27.5004 13.7683 26.5764C12.8563 25.6523 12.8563 24.1547 13.7683 23.2306L17.7229 19.2237L13.7683 15.2168C11.6341 12.9808 14.8636 9.70985 17.0704 11.871Z" fill="#FFDBB3"/>
</svg>
