<svg width="256" height="102" viewBox="0 0 256 102" fill="none" xmlns="http://www.w3.org/2000/svg">
<g filter="url(#filter0_d_334_152)">
<g filter="url(#filter1_d_334_152)">
<path d="M220.218 24.8298C214.32 -3.98375 165.752 1.68 132.115 6.10352e-05C94.1074 1.14416 45.7127 -1.88383 34.3803 22.9942C32.6254 28.1221 33.0484 33.4443 33.0368 38.6507C33.0052 48.7616 32.5408 59.8767 36.457 69.8827C47.1889 95.7371 81.604 94.0608 116.81 95.3738C138.896 95.1071 158.889 94.9442 181.129 92.4629C209.539 89.7849 217.286 71.0944 218.981 52.9615C220.276 43.3501 222.041 33.1619 220.218 24.8298ZM215.899 52.7418C213.749 89.5942 186.395 91.9802 143.05 92.6391C117.281 93.3837 88.8095 94.0149 63.8773 88.4212C28.6378 79.9286 35.777 44.8273 37.3826 23.5433C38.333 20.7868 39.9636 18.1861 42.7419 15.8701C69.3129 -3.75686 167.73 0.247463 201.577 8.04975C222.179 16.015 218.395 34.2493 215.899 52.7418Z" fill="#1C1C1C"/>
</g>
<path d="M215.899 52.7406C213.757 89.5845 186.385 91.985 143.048 92.6391C81.0998 93.899 28.2995 96.9487 36.1353 38.6566C33.8545 16.9297 45.5933 9.46776 73.541 4.97104C94.9003 1.7753 178.636 -0.155664 201.579 8.05333C223.721 16.8935 217.579 36.955 215.899 52.7406Z" fill="#FFCE55"/>
<path d="M134.774 77.1467C98.0619 77.1467 64.3933 72.7188 38.1357 65.3486C45.6713 99.2056 107.873 92.411 143.05 92.6415C168.795 91.9826 205.894 91.9113 211.805 70.0227C189.222 74.5496 162.89 77.1467 134.774 77.1467Z" fill="#FF9B57"/>
<path d="M38.9751 40.911C39.0017 33.0025 37.9467 24.4894 45.5851 18.1245C61.8157 0.179799 190.406 -0.00847036 210.805 13.5891C196.666 -3.36713 56.8064 -1.81633 42.7437 15.8701C35.1053 22.2374 36.1603 30.7505 36.1337 38.6578C36.0939 53.3138 34.9975 72.2336 49.8032 82.5546C37.9865 71.8969 38.937 54.5556 38.9751 40.911Z" fill="#FFF097"/>
<g opacity="0.68">
<path d="M43.3875 33.4588C43.3875 33.4588 42.7787 23.378 49.7454 17.6044C56.712 11.8308 75.8735 5.35364 82.2596 9.43763C89.1167 14.2747 63.6852 18.6447 62.5175 29.3832C62.0862 37.0661 46.3035 43.6917 43.3875 33.4588Z" fill="#FFF097"/>
<path d="M50.3259 42.3871C50.3259 42.3871 41.6475 44.0767 43.3743 48.7243C45.101 53.3706 47.4232 55.9062 53.4228 54.0754C59.4224 52.2447 55.9324 40.0229 50.3259 42.3871Z" fill="#FFF097"/>
<path d="M211.806 51.9804C211.806 51.9804 210.064 65.7807 200.193 68.4563C190.322 71.1319 184.903 70.7095 185.291 67.1891C185.677 63.6687 196.71 65.0771 200.193 57.1916C203.676 49.3048 210.644 44.7996 211.806 51.9804Z" fill="#FFF097"/>
</g>
</g>
<path d="M51.1384 57.0001C50.7464 57.0001 50.4104 56.8694 50.1304 56.6081C49.869 56.3281 49.7384 55.9921 49.7384 55.6001V39.6401C49.7384 39.2481 49.869 38.9214 50.1304 38.6601C50.4104 38.3801 50.7464 38.2401 51.1384 38.2401H62.3104C62.7024 38.2401 63.029 38.3801 63.2904 38.6601C63.5517 38.9214 63.6824 39.2481 63.6824 39.6401C63.6824 40.0321 63.5517 40.3681 63.2904 40.6481C63.029 40.9094 62.7024 41.0401 62.3104 41.0401H52.5104V45.8561H61.0224C61.4144 45.8561 61.741 45.9867 62.0024 46.2481C62.2637 46.5094 62.3944 46.8361 62.3944 47.2281C62.3944 47.6201 62.2637 47.9561 62.0024 48.2361C61.741 48.4974 61.4144 48.6281 61.0224 48.6281H52.5104V54.2001H62.2544C62.6464 54.2001 62.973 54.3401 63.2344 54.6201C63.4957 54.8814 63.6264 55.2081 63.6264 55.6001C63.6264 55.9921 63.4957 56.3281 63.2344 56.6081C62.973 56.8694 62.6464 57.0001 62.2544 57.0001H51.1384ZM71.46 57.1681C71.0494 57.1681 70.7134 57.0374 70.452 56.7761C70.1907 56.4961 70.06 56.1694 70.06 55.7961C70.06 55.6467 70.088 55.4881 70.144 55.3201C70.2 55.1334 70.2747 54.9934 70.368 54.9001L76.612 47.4801L70.928 40.3401C70.704 40.0414 70.592 39.7521 70.592 39.4721C70.592 39.0987 70.732 38.7814 71.012 38.5201C71.3107 38.2401 71.6467 38.1001 72.02 38.1001C72.4494 38.1001 72.804 38.2681 73.084 38.6041L78.432 45.2961L84.06 38.6041C84.1907 38.4361 84.3494 38.3147 84.536 38.2401C84.7414 38.1467 84.9374 38.1001 85.124 38.1001C85.4974 38.1001 85.824 38.2401 86.104 38.5201C86.384 38.8001 86.524 39.1174 86.524 39.4721C86.524 39.7894 86.412 40.0881 86.188 40.3681L80.196 47.5081L86.104 54.9561C86.272 55.1614 86.356 55.4414 86.356 55.7961C86.356 56.1694 86.2254 56.4961 85.964 56.7761C85.7027 57.0374 85.3854 57.1681 85.012 57.1681C84.564 57.1681 84.2 57.0001 83.92 56.6641L78.348 49.7201L72.496 56.6641C72.216 57.0001 71.8707 57.1681 71.46 57.1681ZM96.4929 57.0001C96.1009 57.0001 95.7649 56.8694 95.4849 56.6081C95.2236 56.3281 95.0929 55.9921 95.0929 55.6001V39.6401C95.0929 39.2481 95.2236 38.9214 95.4849 38.6601C95.7649 38.3801 96.1009 38.2401 96.4929 38.2401H107.665C108.057 38.2401 108.384 38.3801 108.645 38.6601C108.906 38.9214 109.037 39.2481 109.037 39.6401C109.037 40.0321 108.906 40.3681 108.645 40.6481C108.384 40.9094 108.057 41.0401 107.665 41.0401H97.8649V45.8561H106.377C106.769 45.8561 107.096 45.9867 107.357 46.2481C107.618 46.5094 107.749 46.8361 107.749 47.2281C107.749 47.6201 107.618 47.9561 107.357 48.2361C107.096 48.4974 106.769 48.6281 106.377 48.6281H97.8649V54.2001H107.609C108.001 54.2001 108.328 54.3401 108.589 54.6201C108.85 54.8814 108.981 55.2081 108.981 55.6001C108.981 55.9921 108.85 56.3281 108.589 56.6081C108.328 56.8694 108.001 57.0001 107.609 57.0001H96.4929ZM117.543 57.1681C117.151 57.1681 116.824 57.0374 116.563 56.7761C116.301 56.5147 116.171 56.1881 116.171 55.7961V39.7521C116.171 39.2481 116.217 38.8841 116.311 38.6601C116.423 38.4361 116.628 38.2867 116.927 38.2121C117.244 38.1187 117.739 38.0721 118.411 38.0721H119.559C122.695 38.0721 125.112 38.5947 126.811 39.6401C128.509 40.6854 129.359 42.1507 129.359 44.0361C129.359 46.4254 127.977 48.2361 125.215 49.4681C127.193 51.0361 128.743 52.9307 129.863 55.1521C129.956 55.3387 130.003 55.5534 130.003 55.7961C130.003 56.1694 129.872 56.4961 129.611 56.7761C129.368 57.0374 129.041 57.1681 128.631 57.1681C128.108 57.1681 127.697 56.9254 127.399 56.4401C124.935 52.5201 122.732 50.5601 120.791 50.5601C120.212 50.5601 119.587 50.6161 118.915 50.7281V55.7961C118.915 56.1881 118.775 56.5147 118.495 56.7761C118.233 57.0374 117.916 57.1681 117.543 57.1681ZM118.915 48.1521C120.931 48.0214 122.713 47.6107 124.263 46.9201C125.812 46.2294 126.587 45.2681 126.587 44.0361C126.587 42.9721 125.961 42.1601 124.711 41.6001C123.479 41.0401 121.733 40.7601 119.475 40.7601H118.915V48.1521ZM144.171 57.1681C142.677 57.1681 141.305 56.8321 140.055 56.1601C138.804 55.4881 137.815 54.5174 137.087 53.2481C136.359 51.9601 135.995 50.4574 135.995 48.7401C135.995 46.9294 136.415 45.2027 137.255 43.5601C138.113 41.8987 139.215 40.5734 140.559 39.5841C141.921 38.5761 143.312 38.0721 144.731 38.0721C145.328 38.0721 145.916 38.1654 146.495 38.3521C147.092 38.5387 147.624 38.7721 148.091 39.0521C148.315 38.8281 148.595 38.7161 148.931 38.7161C149.304 38.7161 149.612 38.8467 149.855 39.1081C150.097 39.3507 150.219 39.6494 150.219 40.0041V41.7961C150.219 42.1694 150.079 42.4961 149.799 42.7761C149.537 43.0561 149.211 43.1961 148.819 43.1961C148.445 43.1961 148.128 43.0841 147.867 42.8601C147.624 42.6361 147.503 42.3747 147.503 42.0761V41.8801C146.812 41.1521 145.823 40.7881 144.535 40.7881C143.601 40.7881 142.687 41.1707 141.791 41.9361C140.895 42.6827 140.167 43.6721 139.607 44.9041C139.065 46.1361 138.795 47.4147 138.795 48.7401C138.795 49.9161 139.037 50.9427 139.523 51.8201C140.008 52.6787 140.652 53.3414 141.455 53.8081C142.276 54.2561 143.181 54.4801 144.171 54.4801C145.981 54.4801 147.475 53.7054 148.651 52.1561C148.819 51.9507 148.987 51.8107 149.155 51.7361C149.323 51.6427 149.519 51.5961 149.743 51.5961C150.135 51.5961 150.461 51.7267 150.723 51.9881C151.003 52.2307 151.143 52.5667 151.143 52.9961C151.143 53.3134 151.059 53.5934 150.891 53.8361C150.125 54.9187 149.155 55.7494 147.979 56.3281C146.821 56.8881 145.552 57.1681 144.171 57.1681ZM158.467 57.0001C158.075 57.0001 157.739 56.8694 157.459 56.6081C157.198 56.3281 157.067 55.9921 157.067 55.6001C157.067 55.2081 157.198 54.8814 157.459 54.6201C157.739 54.3401 158.075 54.2001 158.467 54.2001H160.427V41.0401H158.467C158.075 41.0401 157.739 40.9001 157.459 40.6201C157.198 40.3401 157.067 40.0041 157.067 39.6121C157.067 39.2201 157.198 38.8934 157.459 38.6321C157.739 38.3707 158.075 38.2401 158.467 38.2401H165.159C165.551 38.2401 165.878 38.3707 166.139 38.6321C166.401 38.8934 166.531 39.2201 166.531 39.6121C166.531 40.0041 166.401 40.3401 166.139 40.6201C165.878 40.9001 165.551 41.0401 165.159 41.0401H163.227V54.2001H165.159C165.57 54.2001 165.897 54.3401 166.139 54.6201C166.401 54.8814 166.531 55.2081 166.531 55.6001C166.531 55.9921 166.401 56.3281 166.139 56.6081C165.878 56.8694 165.551 57.0001 165.159 57.0001H158.467ZM179.559 57.1681C177.953 57.1681 176.553 56.8134 175.359 56.1041C174.183 55.3947 173.352 54.5267 172.867 53.5001C172.661 53.0521 172.559 52.6881 172.559 52.4081C172.559 52.0161 172.699 51.6894 172.979 51.4281C173.259 51.1481 173.595 51.0081 173.987 51.0081C174.323 51.0081 174.612 51.1014 174.855 51.2881C175.097 51.4747 175.275 51.7267 175.387 52.0441C175.685 52.8467 176.236 53.4627 177.039 53.8921C177.841 54.3214 178.7 54.5361 179.615 54.5361C180.772 54.5361 181.724 54.2654 182.471 53.7241C183.236 53.1641 183.619 52.4827 183.619 51.6801C183.619 51.0641 183.311 50.5041 182.695 50.0001C182.097 49.4961 181.071 49.0387 179.615 48.6281C177.729 48.1054 176.245 47.4334 175.163 46.6121C174.08 45.7721 173.539 44.6241 173.539 43.1681C173.539 42.1787 173.8 41.3014 174.323 40.5361C174.864 39.7521 175.629 39.1454 176.619 38.7161C177.608 38.2867 178.765 38.0721 180.091 38.0721C181.995 38.0721 183.488 38.4454 184.571 39.1921C185.672 39.9387 186.223 40.9374 186.223 42.1881C186.223 42.5987 186.092 42.9441 185.831 43.2241C185.569 43.5041 185.243 43.6441 184.851 43.6441C184.515 43.6441 184.225 43.5321 183.983 43.3081C183.74 43.0841 183.6 42.8041 183.563 42.4681C183.488 41.9454 183.143 41.5161 182.527 41.1801C181.911 40.8254 181.099 40.6481 180.091 40.6481C178.84 40.6481 177.888 40.8627 177.235 41.2921C176.581 41.7027 176.255 42.2627 176.255 42.9721C176.255 43.6254 176.591 44.1761 177.263 44.6241C177.935 45.0721 179.036 45.5201 180.567 45.9681C182.452 46.5094 183.88 47.2374 184.851 48.1521C185.821 49.0667 186.307 50.1961 186.307 51.5401C186.307 52.5854 185.999 53.5374 185.383 54.3961C184.767 55.2547 183.936 55.9361 182.891 56.4401C181.864 56.9254 180.753 57.1681 179.559 57.1681ZM195.264 57.0001C194.872 57.0001 194.536 56.8694 194.256 56.6081C193.995 56.3281 193.864 55.9921 193.864 55.6001V39.6401C193.864 39.2481 193.995 38.9214 194.256 38.6601C194.536 38.3801 194.872 38.2401 195.264 38.2401H206.436C206.828 38.2401 207.155 38.3801 207.416 38.6601C207.677 38.9214 207.808 39.2481 207.808 39.6401C207.808 40.0321 207.677 40.3681 207.416 40.6481C207.155 40.9094 206.828 41.0401 206.436 41.0401H196.636V45.8561H205.148C205.54 45.8561 205.867 45.9867 206.128 46.2481C206.389 46.5094 206.52 46.8361 206.52 47.2281C206.52 47.6201 206.389 47.9561 206.128 48.2361C205.867 48.4974 205.54 48.6281 205.148 48.6281H196.636V54.2001H206.38C206.772 54.2001 207.099 54.3401 207.36 54.6201C207.621 54.8814 207.752 55.2081 207.752 55.6001C207.752 55.9921 207.621 56.3281 207.36 56.6081C207.099 56.8694 206.772 57.0001 206.38 57.0001H195.264Z" fill="white"/>
<defs>
<filter id="filter0_d_334_152" x="29.8791" y="6.10352e-05" width="194.242" height="101.616" filterUnits="userSpaceOnUse" color-interpolation-filters="sRGB">
<feFlood flood-opacity="0" result="BackgroundImageFix"/>
<feColorMatrix in="SourceAlpha" type="matrix" values="0 0 0 0 0 0 0 0 0 0 0 0 0 0 0 0 0 0 127 0" result="hardAlpha"/>
<feOffset dy="3.12093"/>
<feGaussianBlur stdDeviation="1.56046"/>
<feComposite in2="hardAlpha" operator="out"/>
<feColorMatrix type="matrix" values="0 0 0 0 0 0 0 0 0 0 0 0 0 0 0 0 0 0 0.1 0"/>
<feBlend mode="normal" in2="BackgroundImageFix" result="effect1_dropShadow_334_152"/>
<feBlend mode="normal" in="SourceGraphic" in2="effect1_dropShadow_334_152" result="shape"/>
</filter>
<filter id="filter1_d_334_152" x="33" y="6.10352e-05" width="192" height="99.3738" filterUnits="userSpaceOnUse" color-interpolation-filters="sRGB">
<feFlood flood-opacity="0" result="BackgroundImageFix"/>
<feColorMatrix in="SourceAlpha" type="matrix" values="0 0 0 0 0 0 0 0 0 0 0 0 0 0 0 0 0 0 127 0" result="hardAlpha"/>
<feOffset dx="4" dy="4"/>
<feComposite in2="hardAlpha" operator="out"/>
<feColorMatrix type="matrix" values="0 0 0 0 0 0 0 0 0 0 0 0 0 0 0 0 0 0 0.25 0"/>
<feBlend mode="normal" in2="BackgroundImageFix" result="effect1_dropShadow_334_152"/>
<feBlend mode="normal" in="SourceGraphic" in2="effect1_dropShadow_334_152" result="shape"/>
</filter>
</defs>
</svg>
