<svg width="148" height="34" viewBox="0 0 148 34" fill="none" xmlns="http://www.w3.org/2000/svg">
<path d="M138.454 8.94385C142.432 8.94385 145.656 12.1553 145.68 16.1255C145.755 18.4014 145.916 21.3558 145.141 23.7524C144.739 24.9973 144.061 26.1785 142.931 27.064C141.799 27.9512 140.332 28.4465 138.52 28.5327L138.487 28.5347H35.7866L35.7524 28.5327C33.9463 28.4419 32.4834 27.947 31.3521 27.064C30.2228 26.1825 29.5434 25.0073 29.1382 23.7651C28.3579 21.3732 28.5149 18.4229 28.5952 16.1226C28.6213 12.1534 31.8465 8.94385 35.8218 8.94385H138.454Z" fill="#FFFFFE" stroke="#DB8686" stroke-width="2.76585"/>
<path d="M37.5435 5.74278C32.0659 0.396825 24.3975 1.93228 17.8386 1.12609C12.2412 1.03142 5.90263 -0.125345 1.91166 4.98393C0.173558 7.62288 0.488635 10.2249 0.386568 12.778C0.262312 15.488 0.269708 17.8917 0.413194 20.1298C0.256395 34.4577 8.73093 33.1352 22.3147 33.8867C38.4798 34.2092 37.6914 27.2775 39.2076 17.6684C39.4931 14.2365 39.6558 8.11843 37.5435 5.74278ZM33.5732 28.7789C30.3159 32.9977 10.9143 30.9356 6.57421 29.5806C1.80515 27.35 3.13351 17.3163 2.97671 12.8978C3.0773 10.7426 2.78293 8.32257 4.05951 6.43803C7.85374 2.03879 14.7677 3.87598 19.9006 3.8316C25.0972 4.41294 31.6162 3.51061 35.6086 7.46313C37.7787 9.9083 36.8275 24.5601 33.5732 28.7789Z" fill="#DB8686"/>
<path d="M33.5732 28.779C30.3159 32.9978 10.9142 30.9357 6.57417 29.5807C1.80511 27.35 3.13347 17.3164 2.97667 12.8979C3.07726 10.7427 2.78289 8.32266 4.05947 6.43811C7.8537 2.03887 14.7676 3.87606 19.9006 3.83168C25.0971 4.41302 31.6161 3.5107 35.6086 7.46321C37.7786 9.90839 36.8275 24.5602 33.5732 28.779Z" fill="#FFDBB3"/>
<path d="M36.2803 20.4318C35.7611 23.905 34.841 27.1356 33.5733 28.7791C30.316 32.9993 10.9144 30.9373 6.5743 29.5808C3.51081 28.6238 3.19573 23.2364 3.0271 20.4199C6.68673 21.4495 11.1037 22.1669 15.2456 22.4154C19.7158 26.9463 19.5886 26.9463 24.0559 22.4213C28.464 22.1432 32.6 21.4524 36.2803 20.4318Z" fill="#FFB392"/>
<path d="M24.0559 22.4224C19.5842 26.9563 19.7114 26.94 15.2456 22.4165C18.1346 22.6044 21.1788 22.6029 24.0559 22.4224Z" fill="#CE2E6F"/>
<path d="M24.0558 22.4226C21.1787 22.6031 18.1345 22.606 15.2455 22.4167C7.27097 14.6063 10.225 5.50906 19.6536 12.9304C29.1178 5.4913 32.0097 14.6463 24.0558 22.4226Z" fill="#EE3F6C"/>
</svg>
