<svg width="40" height="34" viewBox="0 0 40 34" fill="none" xmlns="http://www.w3.org/2000/svg">
<path d="M37.3093 5.74278C31.8317 0.396825 24.1634 1.93228 17.6044 1.12609C12.007 1.03142 5.6685 -0.125345 1.67753 4.98393C-0.0605728 7.62288 0.254504 10.2249 0.152437 12.778C0.0281811 15.488 0.0355773 17.8917 0.179063 20.1298C0.0222642 34.4577 8.4968 33.1352 22.0806 33.8867C38.2457 34.2092 37.4572 27.2775 38.9735 17.6684C39.259 14.2365 39.4217 8.11843 37.3093 5.74278ZM33.3391 28.7789C30.0818 32.9977 10.6801 30.9356 6.34008 29.5806C1.57102 27.35 2.89938 17.3163 2.74258 12.8978C2.84316 10.7426 2.5488 8.32257 3.82538 6.43803C7.61961 2.03879 14.5336 3.87598 19.6665 3.8316C24.8631 4.41294 31.382 3.51061 35.3745 7.46313C37.5445 9.9083 36.5934 24.5601 33.3391 28.7789Z" fill="#DB8686"/>
<path d="M33.339 28.7789C30.0818 32.9976 10.6801 30.9356 6.34003 29.5806C1.57098 27.3499 2.89934 17.3163 2.74254 12.8978C2.84312 10.7425 2.54876 8.32253 3.82534 6.43799C7.61957 2.03875 14.5335 3.87594 19.6665 3.83156C24.863 4.4129 31.382 3.51057 35.3745 7.46309C37.5445 9.90826 36.5933 24.5601 33.339 28.7789Z" fill="#FFDBB3"/>
<path d="M36.0462 20.4315C35.527 23.9048 34.6069 27.1354 33.3392 28.7788C30.0819 32.9991 10.6802 30.937 6.34017 29.5806C3.27668 28.6235 2.9616 23.2361 2.79297 20.4197C6.45259 21.4492 10.8696 22.1667 15.0114 22.4152C19.4817 26.9461 19.3545 26.9461 23.8218 22.4211C28.2299 22.143 32.3658 21.4522 36.0462 20.4315Z" fill="#FFB392"/>
<path d="M23.8216 22.4225C19.3498 26.9564 19.477 26.9401 15.0112 22.4166C17.9002 22.6045 20.9444 22.603 23.8216 22.4225Z" fill="#CE2E6F"/>
<path d="M23.8217 22.4226C20.9446 22.6031 17.9003 22.606 15.0114 22.4167C7.03684 14.6063 9.99087 5.50906 19.4195 12.9304C28.8837 5.4913 31.7756 14.6463 23.8217 22.4226Z" fill="#EE3F6C"/>
</svg>
