<svg width="256" height="102" viewBox="0 0 256 102" fill="none" xmlns="http://www.w3.org/2000/svg">
<g filter="url(#filter0_d_334_150)">
<g filter="url(#filter1_d_334_150)">
<path d="M220.218 24.8298C214.32 -3.98375 165.752 1.68 132.115 6.10352e-05C94.1074 1.14416 45.7127 -1.88383 34.3803 22.9942C32.6254 28.1221 33.0484 33.4443 33.0368 38.6507C33.0052 48.7616 32.5408 59.8767 36.457 69.8827C47.1889 95.7371 81.604 94.0608 116.81 95.3738C138.896 95.1071 158.889 94.9442 181.129 92.4629C209.539 89.7849 217.286 71.0944 218.981 52.9615C220.276 43.3501 222.041 33.1619 220.218 24.8298ZM215.899 52.7418C213.749 89.5942 186.395 91.9802 143.05 92.6391C117.281 93.3837 88.8095 94.0149 63.8773 88.4212C28.6378 79.9286 35.777 44.8273 37.3826 23.5433C38.333 20.7868 39.9636 18.1861 42.7419 15.8701C69.3129 -3.75686 167.73 0.247463 201.577 8.04975C222.179 16.015 218.395 34.2493 215.899 52.7418Z" fill="#1C1C1C"/>
</g>
<path d="M215.899 52.7406C213.757 89.5845 186.385 91.985 143.048 92.6391C81.0998 93.899 28.2995 96.9487 36.1353 38.6566C33.8545 16.9297 45.5933 9.46776 73.541 4.97104C94.9003 1.7753 178.636 -0.155664 201.579 8.05333C223.721 16.8935 217.579 36.955 215.899 52.7406Z" fill="#FFCE55"/>
<path d="M134.774 77.1467C98.0619 77.1467 64.3933 72.7188 38.1357 65.3486C45.6713 99.2056 107.873 92.411 143.05 92.6415C168.795 91.9826 205.894 91.9113 211.805 70.0227C189.222 74.5496 162.89 77.1467 134.774 77.1467Z" fill="#FF9B57"/>
<path d="M38.9751 40.911C39.0017 33.0025 37.9467 24.4894 45.5851 18.1245C61.8157 0.179799 190.406 -0.0084703 210.805 13.5891C196.666 -3.36714 56.8064 -1.81633 42.7437 15.8701C35.1053 22.2374 36.1603 30.7505 36.1337 38.6578C36.0939 53.3138 34.9975 72.2336 49.8032 82.5546C37.9865 71.8969 38.937 54.5556 38.9751 40.911Z" fill="#FFF097"/>
<g opacity="0.68">
<path d="M43.3875 33.4588C43.3875 33.4588 42.7787 23.378 49.7454 17.6044C56.712 11.8308 75.8735 5.35364 82.2596 9.43763C89.1167 14.2747 63.6852 18.6447 62.5175 29.3832C62.0862 37.0661 46.3035 43.6917 43.3875 33.4588Z" fill="#FFF097"/>
<path d="M50.3259 42.3871C50.3259 42.3871 41.6475 44.0767 43.3743 48.7243C45.101 53.3706 47.4232 55.9062 53.4228 54.0754C59.4224 52.2447 55.9324 40.0229 50.3259 42.3871Z" fill="#FFF097"/>
<path d="M211.806 51.9804C211.806 51.9804 210.064 65.7807 200.193 68.4563C190.322 71.1319 184.903 70.7095 185.291 67.1891C185.677 63.6687 196.71 65.0771 200.193 57.1916C203.676 49.3048 210.644 44.7996 211.806 51.9804Z" fill="#FFF097"/>
</g>
</g>
<path d="M50.6045 55.1401C50.2498 55.1587 49.9325 55.0281 49.6525 54.7481C49.3725 54.4681 49.2325 54.1507 49.2325 53.7961V37.4721C49.2325 37.0987 49.3632 36.7814 49.6245 36.5201C49.9045 36.2401 50.2405 36.1001 50.6325 36.1001C51.0058 36.1001 51.3232 36.2401 51.5845 36.5201C51.8645 36.7814 52.0045 37.0987 52.0045 37.4721V52.3121L59.6205 51.8081C60.0125 51.7894 60.3392 51.9107 60.6005 52.1721C60.8618 52.4147 60.9925 52.7414 60.9925 53.1521C60.9925 53.4881 60.8618 53.8054 60.6005 54.1041C60.3578 54.3841 60.0685 54.5334 59.7325 54.5521L50.6045 55.1401ZM69.468 55.0001C69.076 55.0001 68.74 54.8694 68.46 54.6081C68.1986 54.3281 68.068 53.9921 68.068 53.6001V37.6401C68.068 37.2481 68.1986 36.9214 68.46 36.6601C68.74 36.3801 69.076 36.2401 69.468 36.2401H80.64C81.032 36.2401 81.3586 36.3801 81.62 36.6601C81.8813 36.9214 82.012 37.2481 82.012 37.6401C82.012 38.0321 81.8813 38.3681 81.62 38.6481C81.3586 38.9094 81.032 39.0401 80.64 39.0401H70.84V43.8561H79.352C79.744 43.8561 80.0706 43.9867 80.332 44.2481C80.5933 44.5094 80.724 44.8361 80.724 45.2281C80.724 45.6201 80.5933 45.9561 80.332 46.2361C80.0706 46.4974 79.744 46.6281 79.352 46.6281H70.84V52.2001H80.584C80.976 52.2001 81.3026 52.3401 81.564 52.6201C81.8253 52.8814 81.956 53.2081 81.956 53.6001C81.956 53.9921 81.8253 54.3281 81.564 54.6081C81.3026 54.8694 80.976 55.0001 80.584 55.0001H69.468ZM100.878 55.1961C100.206 55.1961 99.767 54.8787 99.5616 54.2441L97.5456 48.4201L91.8336 49.6801L90.0136 54.2721C89.9016 54.5334 89.7336 54.7481 89.5096 54.9161C89.3043 55.0841 89.043 55.1681 88.7256 55.1681C88.3523 55.1681 88.0256 55.0374 87.7456 54.7761C87.4656 54.5147 87.3256 54.2067 87.3256 53.8521C87.3256 53.6094 87.391 53.3294 87.5216 53.0121L88.6416 50.2121C88.5296 50.1747 88.4456 50.1374 88.3896 50.1001C87.9043 49.8574 87.6616 49.4467 87.6616 48.8681C87.6616 48.5321 87.755 48.2427 87.9416 48.0001C88.147 47.7574 88.4083 47.5987 88.7256 47.5241L89.7616 47.3001L93.9056 36.7721C94.0176 36.4921 94.195 36.2774 94.4376 36.1281C94.6803 35.9787 94.9416 35.9041 95.2216 35.9041C95.5203 35.9041 95.7816 35.9787 96.0056 36.1281C96.2296 36.2774 96.3976 36.5107 96.5096 36.8281L102.082 52.9841C102.1 53.0214 102.138 53.1334 102.194 53.3201C102.25 53.4881 102.278 53.6654 102.278 53.8521C102.278 54.2067 102.147 54.5241 101.886 54.8041C101.624 55.0654 101.288 55.1961 100.878 55.1961ZM96.6216 45.8161L95.1096 41.3081L93.0096 46.6001L96.6216 45.8161ZM110.447 55.1681C110.055 55.1681 109.728 55.0374 109.467 54.7761C109.206 54.5147 109.075 54.1881 109.075 53.7961V37.7521C109.075 37.2481 109.122 36.8841 109.215 36.6601C109.327 36.4361 109.532 36.2867 109.831 36.2121C110.148 36.1187 110.643 36.0721 111.315 36.0721H112.463C115.599 36.0721 118.016 36.5947 119.715 37.6401C121.414 38.6854 122.263 40.1507 122.263 42.0361C122.263 44.4254 120.882 46.2361 118.119 47.4681C120.098 49.0361 121.647 50.9307 122.767 53.1521C122.86 53.3387 122.907 53.5534 122.907 53.7961C122.907 54.1694 122.776 54.4961 122.515 54.7761C122.272 55.0374 121.946 55.1681 121.535 55.1681C121.012 55.1681 120.602 54.9254 120.303 54.4401C117.839 50.5201 115.636 48.5601 113.695 48.5601C113.116 48.5601 112.491 48.6161 111.819 48.7281V53.7961C111.819 54.1881 111.679 54.5147 111.399 54.7761C111.138 55.0374 110.82 55.1681 110.447 55.1681ZM111.819 46.1521C113.835 46.0214 115.618 45.6107 117.167 44.9201C118.716 44.2294 119.491 43.2681 119.491 42.0361C119.491 40.9721 118.866 40.1601 117.615 39.6001C116.383 39.0401 114.638 38.7601 112.379 38.7601H111.819V46.1521ZM131.251 55.1681C130.896 55.1681 130.579 55.0281 130.299 54.7481C130.019 54.4681 129.879 54.1507 129.879 53.7961L129.907 37.4721C129.907 37.0987 130.028 36.7814 130.271 36.5201C130.532 36.2401 130.859 36.1001 131.251 36.1001C131.475 36.1001 131.69 36.1561 131.895 36.2681C132.1 36.3614 132.268 36.5014 132.399 36.6881L141.163 49.3721V37.4721C141.163 37.0987 141.294 36.7721 141.555 36.4921C141.835 36.2121 142.171 36.0721 142.563 36.0721C142.936 36.0721 143.254 36.2121 143.515 36.4921C143.795 36.7721 143.935 37.0987 143.935 37.4721V53.7961C143.935 54.1881 143.804 54.5147 143.543 54.7761C143.282 55.0374 142.955 55.1681 142.563 55.1681C142.358 55.1681 142.143 55.1121 141.919 55.0001C141.714 54.8881 141.546 54.7387 141.415 54.5521L132.679 41.9241L132.651 53.7961C132.651 54.1881 132.511 54.5147 132.231 54.7761C131.97 55.0374 131.643 55.1681 131.251 55.1681ZM152.821 55.0001C152.429 55.0001 152.093 54.8694 151.813 54.6081C151.551 54.3281 151.421 53.9921 151.421 53.6001C151.421 53.2081 151.551 52.8814 151.813 52.6201C152.093 52.3401 152.429 52.2001 152.821 52.2001H154.781V39.0401H152.821C152.429 39.0401 152.093 38.9001 151.813 38.6201C151.551 38.3401 151.421 38.0041 151.421 37.6121C151.421 37.2201 151.551 36.8934 151.813 36.6321C152.093 36.3707 152.429 36.2401 152.821 36.2401H159.513C159.905 36.2401 160.231 36.3707 160.493 36.6321C160.754 36.8934 160.885 37.2201 160.885 37.6121C160.885 38.0041 160.754 38.3401 160.493 38.6201C160.231 38.9001 159.905 39.0401 159.513 39.0401H157.581V52.2001H159.513C159.923 52.2001 160.25 52.3401 160.493 52.6201C160.754 52.8814 160.885 53.2081 160.885 53.6001C160.885 53.9921 160.754 54.3281 160.493 54.6081C160.231 54.8694 159.905 55.0001 159.513 55.0001H152.821ZM169.824 55.1681C169.47 55.1681 169.152 55.0281 168.872 54.7481C168.592 54.4681 168.452 54.1507 168.452 53.7961L168.48 37.4721C168.48 37.0987 168.602 36.7814 168.844 36.5201C169.106 36.2401 169.432 36.1001 169.824 36.1001C170.048 36.1001 170.263 36.1561 170.468 36.2681C170.674 36.3614 170.842 36.5014 170.972 36.6881L179.736 49.3721V37.4721C179.736 37.0987 179.867 36.7721 180.128 36.4921C180.408 36.2121 180.744 36.0721 181.136 36.0721C181.51 36.0721 181.827 36.2121 182.088 36.4921C182.368 36.7721 182.508 37.0987 182.508 37.4721V53.7961C182.508 54.1881 182.378 54.5147 182.116 54.7761C181.855 55.0374 181.528 55.1681 181.136 55.1681C180.931 55.1681 180.716 55.1121 180.492 55.0001C180.287 54.8881 180.119 54.7387 179.988 54.5521L171.252 41.9241L171.224 53.7961C171.224 54.1881 171.084 54.5147 170.804 54.7761C170.543 55.0374 170.216 55.1681 169.824 55.1681ZM198.73 55.1961C197.05 55.1961 195.557 54.7574 194.25 53.8801C192.962 53.0027 191.963 51.8547 191.254 50.4361C190.563 48.9987 190.218 47.4774 190.218 45.8721C190.218 44.2854 190.591 42.7361 191.338 41.2241C192.085 39.6934 193.13 38.4521 194.474 37.5001C195.837 36.5294 197.395 36.0441 199.15 36.0441C200.793 36.0441 202.174 36.3987 203.294 37.1081C204.433 37.7987 205.282 38.5921 205.842 39.4881C206.402 40.3841 206.682 41.0934 206.682 41.6161C206.682 42.0081 206.561 42.3254 206.318 42.5681C206.075 42.7921 205.749 42.9041 205.338 42.9041C204.666 42.9041 204.218 42.6054 203.994 42.0081C203.658 41.1121 203.098 40.3654 202.314 39.7681C201.53 39.1521 200.475 38.8441 199.15 38.8441C197.769 38.8441 196.611 39.2547 195.678 40.0761C194.763 40.8787 194.091 41.8307 193.662 42.9321C193.233 44.0334 193.018 45.0134 193.018 45.8721C193.018 46.8801 193.233 47.8881 193.662 48.8961C194.091 49.9041 194.735 50.7441 195.594 51.4161C196.471 52.0694 197.517 52.3961 198.73 52.3961C199.925 52.3961 200.97 52.0974 201.866 51.5001C202.762 50.8841 203.425 50.0254 203.854 48.9241H203.434C202.799 48.9614 202.099 49.0734 201.334 49.2601C201.017 49.3534 200.765 49.4001 200.578 49.4001C200.205 49.4001 199.878 49.2787 199.598 49.0361C199.337 48.7747 199.206 48.4294 199.206 48.0001C199.206 47.3654 199.542 46.9081 200.214 46.6281C200.531 46.4974 201.045 46.3854 201.754 46.2921C202.482 46.1987 203.219 46.1521 203.966 46.1521C205.03 46.1521 206.066 46.3107 207.074 46.6281C207.671 46.8147 207.97 47.2534 207.97 47.9441C207.97 48.2614 207.877 48.5414 207.69 48.7841C207.503 49.0081 207.27 49.1667 206.99 49.2601C206.841 49.2974 206.729 49.3161 206.654 49.3161C206.131 51.0521 205.17 52.4707 203.77 53.5721C202.389 54.6547 200.709 55.1961 198.73 55.1961Z" fill="white"/>
<defs>
<filter id="filter0_d_334_150" x="29.8791" y="6.10352e-05" width="194.242" height="101.616" filterUnits="userSpaceOnUse" color-interpolation-filters="sRGB">
<feFlood flood-opacity="0" result="BackgroundImageFix"/>
<feColorMatrix in="SourceAlpha" type="matrix" values="0 0 0 0 0 0 0 0 0 0 0 0 0 0 0 0 0 0 127 0" result="hardAlpha"/>
<feOffset dy="3.12093"/>
<feGaussianBlur stdDeviation="1.56046"/>
<feComposite in2="hardAlpha" operator="out"/>
<feColorMatrix type="matrix" values="0 0 0 0 0 0 0 0 0 0 0 0 0 0 0 0 0 0 0.1 0"/>
<feBlend mode="normal" in2="BackgroundImageFix" result="effect1_dropShadow_334_150"/>
<feBlend mode="normal" in="SourceGraphic" in2="effect1_dropShadow_334_150" result="shape"/>
</filter>
<filter id="filter1_d_334_150" x="33" y="6.10352e-05" width="192" height="99.3738" filterUnits="userSpaceOnUse" color-interpolation-filters="sRGB">
<feFlood flood-opacity="0" result="BackgroundImageFix"/>
<feColorMatrix in="SourceAlpha" type="matrix" values="0 0 0 0 0 0 0 0 0 0 0 0 0 0 0 0 0 0 127 0" result="hardAlpha"/>
<feOffset dx="4" dy="4"/>
<feComposite in2="hardAlpha" operator="out"/>
<feColorMatrix type="matrix" values="0 0 0 0 0 0 0 0 0 0 0 0 0 0 0 0 0 0 0.25 0"/>
<feBlend mode="normal" in2="BackgroundImageFix" result="effect1_dropShadow_334_150"/>
<feBlend mode="normal" in="SourceGraphic" in2="effect1_dropShadow_334_150" result="shape"/>
</filter>
</defs>
</svg>
