<svg width="73" height="117" viewBox="0 0 73 117" fill="none" xmlns="http://www.w3.org/2000/svg">
<g clip-path="url(#clip0_223_3772)">
<path d="M28.8333 129H63.9181C62.0651 125.93 57.4835 118.678 52.8815 114.435L24.5368 109.103C24.5368 109.103 23.6815 114.577 26.797 123.586C27.469 125.505 28.1613 127.323 28.8333 129Z" fill="#DC7C00"/>
<path opacity="0.5" d="M28.8333 129H32.5189C32.4578 128.879 32.3967 128.758 32.3356 128.636C31.3582 126.374 29.5663 123.647 30.0347 121.081C30.727 117.223 30.6455 113.547 28.9962 109.951L24.5368 109.103C24.5368 109.103 23.6815 114.577 26.797 123.586C27.469 125.505 28.1613 127.323 28.8333 129Z" fill="#7C4800"/>
<path opacity="0.5" d="M29.2609 117.89C29.9328 115.203 29.5256 112.456 28.65 109.87L24.5367 109.103C24.5367 109.103 23.9462 112.86 25.5141 119.263C27.0617 120.092 28.6296 120.374 29.2609 117.89Z" fill="#7C4800"/>
<path opacity="0.5" d="M39.7681 116.92C44.3701 117.041 49.196 116.779 53.5129 115.041C53.3093 114.839 53.0853 114.637 52.8817 114.435L24.5369 109.103C24.5369 109.103 24.2722 110.739 24.5573 113.688C28.9556 116.274 34.7793 116.779 39.7681 116.92Z" fill="#7C4800"/>
<path opacity="0.5" d="M55.3456 117.587C55.4678 117.546 55.5899 117.486 55.7121 117.425C54.7754 116.334 53.8184 115.324 52.8613 114.436L49.644 113.83C50.764 116.011 52.841 118.597 55.3456 117.587Z" fill="#7C4800"/>
<path d="M22.8264 109.85C22.8264 109.85 37.9355 120.718 54.1849 114.536C54.1849 114.536 54.9383 98.0326 52.8613 84.9225L54.5514 86.5991C54.5514 86.5991 58.3388 86.0335 61.7394 82.8419C61.7394 82.8419 52.678 67.6713 43.2298 71.5902C43.2298 71.5902 33.9648 68.7824 32.2747 71.5902C30.5846 74.4385 25.8604 83.8115 22.8264 109.85Z" fill="#FFF227"/>
<path d="M39.2183 74.3577C41.6211 75.0647 44.2886 75.0849 46.7525 74.6203C48.6666 74.2769 50.5807 73.6911 52.3929 72.8831C49.6033 71.1459 46.4471 70.2772 43.2501 71.6105C43.2501 71.6105 38.0984 70.0348 34.7589 70.4186C35.9399 72.0953 37.1821 73.7517 39.2183 74.3577Z" fill="#FFC827"/>
<path d="M53.9812 95.5683C53.3296 95.6693 52.6984 95.7501 52.0468 95.8309C49.2775 96.1339 45.8769 97.1238 42.9854 96.4975C42.3542 96.9824 41.6008 97.2854 40.7659 97.3056C38.5464 97.3662 36.7952 95.7097 35.8178 93.8715C33.0077 88.6194 31.0936 82.6804 29.8312 76.7617C27.6931 82.2562 24.883 92.2353 22.8264 109.85C22.8264 109.85 24.4147 110.981 27.0822 112.314C26.8582 106.093 27.4691 99.7498 27.8763 93.6493C28.365 94.6391 28.8538 95.6895 29.5868 96.5985C29.9941 96.4167 30.3199 96.0127 30.6864 95.6895C31.2362 96.6187 31.562 97.8106 32.5801 98.5176C30.157 103.81 32.5597 109.951 38.1391 112.476C40.3994 113.042 40.9695 111.345 41.5397 110.234C41.8655 109.244 41.6211 108.274 41.2546 107.305C41.7637 106.254 42.8021 105.648 43.4334 104.739C45.4697 104.76 47.0987 103.75 48.0964 101.75C50.1938 101.669 52.2708 101.467 54.2459 101.002C54.1849 99.265 54.1034 97.447 53.9812 95.5683Z" fill="#FFC827"/>
<path d="M58.6443 85.1042C57.9113 84.3769 57.219 83.6295 56.5877 82.8215C55.5289 81.4681 54.3886 80.1348 53.5537 78.64C52.6985 77.1048 51.9858 75.5089 50.988 74.0747C50.9473 74.0949 50.9065 74.1151 50.8455 74.1151C52.0876 77.226 51.7414 80.7611 52.2912 84.0335C52.7799 86.9626 53.3093 89.8917 53.798 92.8207C53.5741 90.1543 53.289 87.4676 52.8817 84.9223L54.5718 86.599C54.5718 86.6192 56.3841 86.3364 58.6443 85.1042Z" fill="#FFC827"/>
<path d="M63.6536 88.3966C63.0427 86.6796 62.1671 85.003 61.0879 83.5283C59.6829 84.8817 57.6059 85.6898 55.7529 86.2756C56.4452 87.1846 57.0561 88.1946 57.4837 89.1642C56.8932 89.5481 56.2823 89.8915 55.7122 90.2753C54.0628 91.3661 52.1894 92.0731 50.3161 92.6791C47.5875 93.5275 44.7367 93.9719 41.9267 94.4568C38.8926 93.5679 35.1052 94.9214 33.2929 97.3454C32.397 98.5372 31.0734 102.396 33.13 103.143C33.2318 104.092 33.802 105.91 34.9016 106.052C35.1256 106.941 35.6754 107.809 36.5509 107.809C36.836 108.577 37.3858 109.324 38.2614 109.142C39.5035 108.9 39.2795 107.203 39.2388 106.314C39.1981 105.506 39.5646 104.416 40.1551 103.507C41.2343 103.486 42.4357 102.86 43.2706 102.416C44.3906 101.83 45.1236 100.537 45.4901 99.2847C49.0129 99.2645 52.4745 98.6989 55.814 97.4666C57.5652 96.8202 59.2553 95.9718 60.8436 94.982C63.5111 93.2851 64.8346 91.7297 63.6536 88.3966Z" fill="#EFCAA6"/>
<path d="M63.7961 88.3361C63.1649 86.5383 62.2689 84.8617 61.2101 83.4072C61.1286 83.488 61.0675 83.5486 60.9861 83.6092C62.0246 85.0435 62.9205 86.6797 63.5314 88.4371C64.6717 91.649 63.4092 93.164 60.7214 94.8609C59.0516 95.9113 57.3819 96.7395 55.7325 97.3455C52.5356 98.5171 49.0739 99.1232 45.4494 99.1434H45.3476L45.3272 99.2444C44.8996 100.679 44.1055 101.79 43.1688 102.274C42.4357 102.658 41.1732 103.325 40.1144 103.345H40.0329L39.9922 103.406C39.3813 104.375 39.0148 105.486 39.0759 106.294L39.0963 106.517C39.1573 107.426 39.2592 108.779 38.2207 108.981C38.1392 108.981 38.0781 109.001 37.9967 109.001C37.2025 109.001 36.7953 108.112 36.6731 107.729L36.6324 107.628H36.5306C35.5328 107.628 35.1255 106.355 35.0237 105.971L35.0034 105.87L34.9015 105.85C33.8834 105.709 33.354 103.911 33.2522 103.062V102.981L33.1707 102.941C32.7227 102.779 32.4377 102.456 32.2748 101.971C31.8472 100.537 32.7838 98.1737 33.3947 97.3657C34.7997 95.5275 37.4265 94.2751 39.9311 94.2751C40.6031 94.2751 41.2547 94.3559 41.8656 94.5377H41.9063H41.947C42.3339 94.4771 42.7004 94.3963 43.067 94.3357C45.4697 93.9115 47.9744 93.5074 50.3568 92.7398C51.9247 92.255 53.9813 91.5278 55.7936 90.336C56.1398 90.1138 56.5063 89.8714 56.8932 89.6492C57.1172 89.5078 57.3412 89.3663 57.5651 89.2249L57.667 89.1643L57.6262 89.0431C57.1986 88.0735 56.6081 87.0635 55.9158 86.1545C55.814 86.1949 55.7325 86.2151 55.6307 86.2555C56.3027 87.1241 56.8932 88.0937 57.3208 89.0431C57.1375 89.1644 56.9543 89.2856 56.7506 89.3866C56.3841 89.6088 55.9972 89.8512 55.6511 90.0734C53.8591 91.245 51.8433 91.9722 50.2753 92.457C47.9133 93.2044 45.429 93.6286 43.0262 94.0327C42.6597 94.0933 42.2932 94.1539 41.9267 94.2145C41.3158 94.0327 40.6438 93.9518 39.9515 93.9518C37.3451 93.9518 34.6165 95.2447 33.1707 97.1637C32.5191 98.0323 31.5417 100.456 32.0101 102.012C32.173 102.557 32.4988 102.941 32.9875 103.143C33.1096 103.971 33.5983 105.83 34.759 106.072C35.0644 107.143 35.6753 107.789 36.4287 107.85C36.7749 108.718 37.3247 109.223 37.9967 109.223C38.0781 109.223 38.1799 109.203 38.2614 109.203C39.5442 108.961 39.422 107.385 39.361 106.456L39.3406 106.234C39.2999 105.507 39.6257 104.496 40.1755 103.587C41.2954 103.547 42.5375 102.88 43.2706 102.476C44.248 101.971 45.0625 100.82 45.5308 99.3656C49.1554 99.3252 52.617 98.7192 55.7936 97.5475C57.4633 96.9213 59.1534 96.0931 60.8435 95.0427C63.6943 93.3256 64.9975 91.7298 63.7961 88.3361Z" fill="#C9976D"/>
<path d="M39.259 69.368C39.259 69.368 38.7907 72.1759 38.9739 73.7717C39.1572 75.3676 40.1957 76.3978 41.9061 76.216C43.5962 76.0342 44.37 74.4383 44.37 72.8425C44.37 71.2467 44.1868 68.6206 44.1868 68.6206L39.259 69.368Z" fill="#C9976D"/>
<path d="M51.5377 17.6349C59.8661 18.5642 65.5269 20.8266 67.4206 27.5736C69.3143 34.3205 66.8504 35.0679 69.8845 41.0674C72.9185 47.067 74.3032 66.5806 46.4471 69.9339C33.9852 71.4287 25.4736 66.5604 23.2133 62.4395C23.2133 62.4395 20.7087 66.1564 16.3104 62.1567C11.9121 58.1368 5.96619 42.9663 18.082 29.533C30.1977 16.1199 51.5377 17.6349 51.5377 17.6349Z" fill="#F4D9BF"/>
<path d="M43.5148 52.4604C43.5148 52.4604 45.266 54.6623 52.0264 55.5915C58.7868 56.5207 61.4339 55.1673 61.4339 55.1673C61.4339 55.1673 59.5402 67.4492 48.3 66.0351C48.3 66.0351 40.0328 64.3989 43.5148 52.4604Z" fill="#930323"/>
<path d="M52.902 59.4902C54.6939 58.8438 55.9157 57.4904 56.7913 55.9147C55.5084 55.9349 53.9405 55.8541 52.0468 55.5915C45.2864 54.6623 43.5352 52.4604 43.5352 52.4604C43.0465 54.1371 42.7818 55.6117 42.7207 56.9045C45.5104 58.9246 49.5829 60.682 52.902 59.4902Z" fill="white"/>
<path d="M48.3 63.0655C47.1393 61.6716 44.8995 59.4496 42.7817 59.4092C43.5555 65.0855 48.3 66.0349 48.3 66.0349C48.8091 66.0955 49.2978 66.1359 49.7865 66.1359C49.5421 65.0653 49.0941 64.0351 48.3 63.0655Z" fill="#F9CBC0"/>
<path d="M8.85773 25.8766C8.85773 25.8766 5.1721 14.9077 21.5233 8.82742C37.8745 2.72688 47.0376 2.54508 53.2686 1.05025C59.4996 -0.444585 66.3007 -0.828393 61.7598 3.21169C61.7598 3.21169 67.7057 0.222029 69.3144 1.79766C70.923 3.3935 65.7305 8.54461 65.7305 8.54461C65.7305 8.54461 71.9615 6.10036 72.9185 7.79719C73.8552 9.47383 67.0541 15.3926 62.8187 16.4228C62.8187 16.4228 66.5043 16.9884 66.5043 18.4832C66.5043 19.9781 52.1487 21.1093 47.4245 21.0083C47.4245 21.0083 50.7233 21.4729 50.6418 22.8869C50.54 24.301 37.2229 27.2906 31.0937 25.1292C31.0937 25.1292 33.1707 26.3412 33.2725 27.5734C33.3743 28.7854 29.0167 26.6442 29.0167 26.6442C29.0167 26.6442 29.5869 34.6032 27.9782 36.1182C26.3696 37.613 25.3311 33.3911 25.3311 33.3911C25.3311 33.3911 26.5529 43.5116 24.9442 44.8246C23.3356 46.1376 22.684 42.3803 22.684 42.3803C22.684 42.3803 26.0031 53.3492 25.1478 55.8742C24.2926 58.3993 22.8876 54.0966 22.3174 52.9654L22.4192 54.642C22.4192 54.642 20.2404 51.0867 17.0231 54.642C13.8058 58.1973 18.3467 65.7118 23.2541 62.4192C23.2541 62.4192 25.718 65.7927 29.2 67.2875C29.2 67.2875 19.3852 72.5396 12.9506 61.7526C12.9506 61.7526 13.3375 63.4898 12.7674 64.0958C12.1972 64.7018 8.3283 62.5404 7.96178 53.6522C7.96178 53.6522 7.49344 56.3186 6.78074 56.46C6.06805 56.6015 1.26247 48.2183 3.482 40.4411C3.482 40.4411 1.07921 43.2086 0.264705 43.0268C-0.529438 42.845 0.834858 32.3003 7.31017 29.0077C7.31017 29.0077 5.19246 28.5026 4.01143 28.5834C2.8304 28.6642 5.43681 26.1998 7.92105 27.4118C7.92105 27.4118 5.74225 25.311 5.9866 23.5333C6.1495 21.7557 8.85773 25.8766 8.85773 25.8766Z" fill="#7F420A"/>
<path opacity="0.5" d="M53.5945 7.02977C55.8344 6.03995 58.0743 5.00973 60.2734 3.9189C60.7825 3.6563 61.2916 3.43409 61.8006 3.19169C64.7736 0.525229 62.778 -0.181786 59.296 0.0606189C61.3526 1.87866 57.4837 4.78752 53.5945 7.02977Z" fill="#59420A"/>
<path opacity="0.5" d="M72.8982 7.79708C71.9615 6.10025 65.7102 8.5445 65.7102 8.5445C65.7102 8.5445 70.9026 3.39339 69.294 1.79755C68.0315 0.545125 64.1015 2.12076 62.4725 2.86818C63.1037 2.58537 63.7553 2.32276 64.4273 2.10056C65.4658 1.75715 66.9523 1.21174 67.9908 1.81775C68.9071 2.34296 68.3777 3.67619 67.9093 4.28221C66.7894 5.71644 65.1604 6.68606 63.6739 7.67588C61.8209 8.90811 59.9272 9.95853 57.9113 10.8271C60.2326 10.3625 62.5539 10.0595 64.9567 9.83733C65.8731 9.75653 67.0337 9.51412 67.7668 10.1807C68.0926 10.4635 67.95 10.9888 67.6853 11.2514C66.3414 12.6452 63.7146 13.3724 61.9227 13.9582C59.9475 14.5844 57.9113 15.049 55.8546 15.3116C57.1578 15.7359 57.9927 16.2813 57.3208 16.9277C55.1623 19.0083 50.7844 18.3821 48.0965 18.3821C45.653 18.3821 43.1891 18.4427 40.7659 18.1801C41.6619 18.6043 42.456 19.1699 42.9447 19.8971C44.4719 22.1798 41.0103 22.705 39.4627 22.8262C37.2025 23.008 34.9015 23.2706 32.6209 23.109C31.2159 23.008 30.0552 22.5232 28.8945 21.9576C29.9941 23.2706 30.8901 24.7654 31.6028 26.2199C31.7249 26.4825 31.4806 26.7249 31.2159 26.6037C29.8719 25.9977 28.752 25.1493 27.7542 24.1392C28.2429 26.6239 28.4669 29.8762 26.7565 29.4318C25.779 29.1691 25.4736 27.1895 25.3107 26.0583C25.2903 27.0279 25.2496 27.9773 25.1682 28.9267C25.0053 30.5428 24.8831 33.1486 23.3152 34.1183C23.2337 34.1789 23.1115 34.1789 23.0301 34.1183C21.7472 33.3708 21.34 31.8558 21.1771 30.3004C21.0956 30.967 21.0142 31.6336 20.892 32.28C20.6477 33.6738 20.3626 35.8555 19.1612 36.8251C18.0616 37.6937 16.7788 36.8857 16.3104 35.7343C15.557 33.9163 15.8217 31.9366 15.9439 30.0176C15.2516 31.1084 14.4574 32.1386 13.6226 33.1082C12.8284 34.0173 11.4438 35.7141 10.0591 35.6333C8.69481 35.5525 8.28755 34.0173 8.63372 32.886C9.06133 31.5124 9.8962 30.3408 10.8329 29.2499C10.0184 29.7348 9.14279 30.0782 8.51154 29.3712C7.81921 28.5833 9.12242 27.7551 10.0387 27.3107C8.45046 26.5431 5.51824 24.4018 6.16984 23.1292C6.06803 23.1898 5.98658 23.311 5.96622 23.5534C5.72186 25.3311 7.90066 27.4319 7.90066 27.4319C5.39606 26.2199 2.78965 28.7045 3.99104 28.6035C5.17207 28.5025 7.28979 29.0277 7.28979 29.0277C0.814472 32.3204 -0.549824 42.8448 0.244319 43.0468C1.03846 43.2286 3.46161 40.4612 3.46161 40.4612C1.24209 48.2384 6.06803 56.6215 6.76036 56.4801C7.47305 56.3387 7.94139 53.6723 7.94139 53.6723C8.30792 62.5807 12.1972 64.7219 12.747 64.1159C13.3171 63.5099 12.9302 61.7727 12.9302 61.7727C19.3445 72.5395 29.1796 67.3076 29.1796 67.3076C25.6772 65.8127 23.2337 62.4393 23.2337 62.4393C18.3263 65.7117 13.7855 58.2174 17.0028 54.6621C20.2201 51.1068 22.3989 54.6621 22.3989 54.6621L22.297 52.9855C22.8672 54.0965 24.2722 58.4194 25.1274 55.8943C25.779 53.9349 23.9464 46.9051 23.0912 43.8549C23.4577 44.7437 24.0482 45.5719 24.9442 44.8447C26.5528 43.5317 25.3311 33.4112 25.3311 33.4112C25.3311 33.4112 26.3696 37.6331 27.9782 36.1383C29.5869 34.6435 29.0167 26.6643 29.0167 26.6643C29.0167 26.6643 33.3539 28.8257 33.2725 27.5935C33.1707 26.3815 31.0937 25.1493 31.0937 25.1493C37.2432 27.3107 50.5604 24.3008 50.6418 22.907C50.7436 21.493 47.4245 21.0284 47.4245 21.0284C52.1486 21.1294 66.5043 19.9981 66.5043 18.5033C66.5043 17.0085 62.8187 16.4429 62.8187 16.4429C67.0337 15.3924 73.8348 9.47372 72.8982 7.79708Z" fill="#59420A"/>
<path d="M20.5458 56.3591C18.6928 55.8742 17.9801 57.8337 18.6724 59.2275C18.6928 59.2881 18.7743 59.2679 18.7743 59.2073C18.6928 58.6215 18.6114 58.0155 18.8557 57.4499C19.2019 56.6419 20.3218 56.8843 20.9327 57.1873C21.0752 57.2681 21.2178 57.3489 21.3399 57.4499C21.116 57.5307 20.9327 57.6923 20.8105 57.8539C20.4644 58.3185 20.4847 58.8639 20.4236 59.4093C20.4236 59.4901 20.5254 59.5103 20.5458 59.4295C20.6476 59.0457 20.8105 58.6417 20.9734 58.2781C21.0549 58.1165 21.1567 57.9549 21.3196 57.8539C21.4418 57.7731 21.5843 57.7933 21.7065 57.8135C22.297 58.5003 22.6228 59.4901 22.8671 60.2981C22.9079 60.4597 23.1522 60.4193 23.1726 60.2779C23.4373 58.6013 22.1952 56.7833 20.5458 56.3591Z" fill="#C39368"/>
<path d="M64.4679 43.4916C63.9385 42.5219 62.4928 42.5623 61.5968 42.8653C61.3117 42.9663 61.047 43.1077 60.8027 43.2693C60.7823 43.2693 60.762 43.2491 60.7212 43.2289C60.0493 43.0269 59.5606 42.6027 59.0922 42.0977C59.0108 42.0169 58.8682 42.1179 58.9293 42.2189C59.2144 42.8047 59.5198 43.4916 60.1103 43.7946C59.5809 44.2592 59.1329 44.8248 58.8071 45.3904C58.746 45.4712 58.8886 45.552 58.9497 45.4712C59.7438 44.4814 62.6353 42.3805 63.7756 43.9764C64.1421 44.4814 63.6942 45.3298 63.4091 45.7742C62.9611 46.461 62.3706 46.9256 61.6375 47.2892C61.5154 47.3498 61.6172 47.5114 61.719 47.5114C63.6331 47.572 65.4657 45.2288 64.4679 43.4916Z" fill="#C39368"/>
<path d="M65.8527 50.5617C65.7916 50.3597 65.5269 50.4405 65.5269 50.6223C65.5066 53.0666 62.7372 54.2584 60.7213 54.8644C58.5833 55.531 56.2416 55.5108 54.022 55.3694C50.2957 55.127 46.9766 54.6422 43.9425 52.4606C44.248 52.3394 44.5738 52.2182 44.7978 51.996C44.8385 51.9556 44.8181 51.895 44.7774 51.8546C44.3498 51.4102 43.5556 51.8546 43.1484 52.1374C42.5172 52.5616 42.0692 53.208 41.8452 53.915C41.8045 54.0564 41.9877 54.1978 42.0692 54.0564C42.3542 53.6322 42.7208 53.2686 43.128 52.9454C40.9289 57.9349 42.5171 64.8232 48.3001 66.3383C54.918 68.0755 60.8842 61.3892 61.7395 55.4704C64.3866 54.7028 66.6061 53.1878 65.8527 50.5617ZM48.7888 65.7121C42.4968 64.7626 42.3746 57.4905 43.6167 52.7232C46.386 55.8341 52.0265 56.1573 55.8547 56.2987C57.0153 56.3391 58.9905 56.1977 60.9046 55.733C59.7032 61.2478 55.0198 66.6615 48.7888 65.7121Z" fill="#C39368"/>
<path d="M61.4544 26.1189C59.8254 26.9471 60.1716 29.0278 60.3956 30.4822C60.4159 30.6034 60.6195 30.5832 60.6399 30.462C60.6603 29.4924 60.8028 28.3612 61.2915 27.4926C62.106 25.9775 63.6943 27.8158 64.3255 28.5026C64.4274 28.6238 64.6513 28.543 64.6513 28.3814C64.6513 26.9875 62.9205 25.3917 61.4544 26.1189Z" fill="#7F420A"/>
<path d="M43.861 30.4013C41.9062 31.2497 41.5804 34.3 42.741 35.6736C42.9243 35.8958 43.2705 35.6938 43.2908 35.4716C43.4537 34.1182 43.0668 32.7648 44.1461 31.6336C45.3882 30.3407 47.4244 32.2194 48.3 32.987C48.4018 33.0678 48.5444 32.9668 48.4833 32.8658C47.5466 31.3305 45.938 29.5125 43.861 30.4013Z" fill="#7F420A"/>
<path d="M65.0788 35.1485C65.4453 36.6433 65.3028 37.9563 64.7734 38.0775C64.2439 38.1987 63.5313 37.1079 63.1647 35.6131C62.7982 34.1182 62.9407 32.8052 63.4702 32.684C64.02 32.5628 64.7326 33.6536 65.0788 35.1485Z" fill="#3D1A0B"/>
<path d="M63.7348 34.2798C63.8162 34.7444 63.7552 35.1282 63.5923 35.1484C63.4294 35.1686 63.2257 34.805 63.1443 34.3606C63.0628 33.896 63.1239 33.5122 63.3072 33.492C63.4497 33.4718 63.6533 33.8354 63.7348 34.2798Z" fill="white"/>
<path d="M48.3205 39.1683C48.626 40.9055 48.3409 42.4206 47.7096 42.562C47.058 42.6832 46.2842 41.3903 45.9788 39.6531C45.6734 37.9159 45.9584 36.4008 46.5897 36.2796C47.2413 36.1382 48.0151 37.431 48.3205 39.1683Z" fill="#3D1A0B"/>
<path d="M46.7322 38.1179C46.7933 38.6431 46.6711 39.0875 46.4675 39.1077C46.2639 39.1279 46.0603 38.7239 45.9992 38.1785C45.9381 37.6533 46.0603 37.1887 46.2639 37.1887C46.4675 37.1685 46.6915 37.5927 46.7322 38.1179Z" fill="white"/>
<path d="M47.8318 45.168C47.954 46.1578 46.0196 47.1679 43.515 47.4507C40.99 47.7133 38.8723 47.1477 38.7501 46.1578C38.6279 45.168 40.5624 44.158 43.067 43.8752C45.5716 43.6126 47.7097 44.1782 47.8318 45.168Z" fill="#F9CBC0"/>
<path d="M68.3573 38.3805C68.6831 39.0471 67.7668 40.1582 66.321 40.8652C64.8549 41.5722 63.3888 41.6126 63.0426 40.946C62.6965 40.2794 63.6128 39.1683 65.0789 38.4613C66.545 37.7745 68.0111 37.7341 68.3573 38.3805Z" fill="#F9CBC0"/>
<path d="M66.6468 63.3486C66.097 62.8436 65.3843 63.1062 64.7734 63.3284C63.3684 63.8334 62.0041 64.5 60.6602 65.1464C59.133 65.8736 57.6262 66.6614 56.0379 67.2674C54.531 67.8331 53.0038 68.0553 51.4563 68.2977C51.1508 67.8937 50.8658 67.4492 50.5603 66.9442C49.9291 65.9342 49.1349 64.9242 47.9946 64.4394C46.6507 63.8536 44.9606 65.0858 45.8158 66.0554C45.6733 66.015 45.5918 66.1968 45.7344 66.2776C47.5059 67.2472 48.3001 69.5299 48.911 71.3075C49.196 72.1762 49.42 73.065 49.5422 73.9538C49.6644 74.8224 49.6033 75.5698 49.4607 76.3576C45.8769 82.8218 40.2161 92.9826 40.2161 92.9826C40.2161 92.9826 38.9944 92.2352 37.2024 88.0133L32.1932 90.8212C32.1932 90.8212 34.9422 97.5681 38.4242 99.9114C41.9266 102.255 43.7999 100.093 46.2638 96.5379C48.7277 92.9826 54.4903 77.3273 54.4903 77.3273C54.4903 77.3273 56.9542 78.4585 59.3163 76.8627C61.3322 75.5092 62.7779 74.2972 61.5969 73.7316C62.1059 73.3276 62.5946 72.863 62.9204 72.3378C63.2055 71.8731 63.4091 71.1661 62.9408 70.7217C62.7983 70.5803 62.615 70.4995 62.4317 70.4389C62.8186 70.1359 63.1648 69.7925 63.4295 69.3885C63.7553 68.9037 63.9793 67.9947 63.4295 67.5705C63.2666 67.4493 63.0833 67.3684 62.9001 67.3078C63.1241 67.1664 63.3481 67.0452 63.572 66.9038C64.1218 66.5604 67.9907 64.5606 66.6468 63.3486Z" fill="#EFCAA6" stroke="#C9976D" stroke-width="0.2525" stroke-miterlimit="10"/>
<path d="M58.5833 68.8633C58.5833 68.8633 58.8276 68.6613 59.2145 68.4391C59.6217 68.1967 60.1512 67.8937 60.7417 67.6513C61.3118 67.4089 61.9431 67.2473 62.4114 67.2271C62.6558 67.2271 62.8594 67.2675 62.9816 67.3281C63.1038 67.3887 63.1445 67.4695 63.1445 67.4493C63.1445 67.4493 63.0834 67.4089 62.9612 67.3685C62.839 67.3281 62.6354 67.3483 62.4318 67.3685C61.9838 67.4493 61.4137 67.6715 60.8435 67.8937C60.2733 68.1159 59.7236 68.3785 59.2959 68.5603C58.8887 68.7421 58.5833 68.8633 58.5833 68.8633Z" fill="#C9976D"/>
<path d="M59.7644 71.429C59.7644 71.429 59.9273 71.2876 60.1717 71.126C60.416 70.9644 60.7825 70.7623 61.1694 70.6209C61.3527 70.5603 61.5563 70.4997 61.7396 70.4593C61.9228 70.4189 62.1265 70.4189 62.269 70.4189C62.4319 70.4391 62.5541 70.4997 62.6355 70.5401C62.6966 70.6007 62.7373 70.6412 62.7373 70.6412C62.7373 70.6412 62.6966 70.6209 62.6152 70.5805C62.5337 70.5603 62.4115 70.5603 62.269 70.5603C61.9839 70.6007 61.6174 70.7422 61.2509 70.8634C60.8843 71.0048 60.5178 71.1462 60.2327 71.2472C59.968 71.3684 59.7644 71.429 59.7644 71.429Z" fill="#C9976D"/>
<path d="M60.2937 73.55C60.2937 73.55 60.3955 73.4894 60.5584 73.449C60.7213 73.4086 60.9453 73.3884 61.1693 73.4288C61.2711 73.449 61.3933 73.4894 61.4951 73.5298C61.5969 73.5702 61.6784 73.651 61.7394 73.6914C61.8005 73.752 61.8413 73.8328 61.8616 73.853C61.882 73.8934 61.9023 73.9136 61.9023 73.9136C61.9023 73.9136 61.7802 73.8732 61.658 73.8126C61.5155 73.7722 61.3322 73.7318 61.1286 73.6914C61.0268 73.6712 60.9249 73.651 60.8435 73.651C60.7417 73.6308 60.6602 73.6106 60.5788 73.6106C60.3955 73.5702 60.2937 73.55 60.2937 73.55Z" fill="#C9976D"/>
<path d="M36.7545 108.395C36.7545 108.395 36.6935 108.315 36.6324 108.173C36.5916 108.092 36.5713 108.012 36.5306 107.89C36.4898 107.789 36.4491 107.668 36.4287 107.527C36.4084 107.385 36.3677 107.224 36.3677 107.062C36.3677 106.901 36.3677 106.739 36.3473 106.557C36.3473 106.375 36.3473 106.194 36.3677 106.012C36.388 105.83 36.4084 105.648 36.4287 105.446C36.4491 105.264 36.5102 105.083 36.5509 104.901C36.5916 104.719 36.6324 104.537 36.6935 104.376C36.7749 104.032 36.9174 103.729 37.0193 103.467C37.2229 102.941 37.3858 102.618 37.3858 102.618C37.3858 102.618 37.3043 102.982 37.1618 103.527C37.0803 103.79 36.9989 104.093 36.9378 104.436C36.8971 104.598 36.8767 104.78 36.836 104.961C36.7953 105.123 36.7545 105.305 36.7342 105.487C36.7138 105.668 36.6935 105.85 36.6527 106.032C36.612 106.214 36.5916 106.375 36.5916 106.557C36.5916 106.719 36.5713 106.901 36.5713 107.042C36.5713 107.204 36.5916 107.345 36.5916 107.486C36.5916 107.628 36.612 107.749 36.6324 107.87C36.6527 107.971 36.6527 108.072 36.6935 108.153C36.7342 108.315 36.7545 108.395 36.7545 108.395Z" fill="#C9976D"/>
<path d="M34.9219 106.436C34.9219 106.436 34.8812 106.355 34.8201 106.194C34.759 106.032 34.7183 105.81 34.6572 105.547C34.6368 105.264 34.5758 104.941 34.6165 104.598C34.6368 104.436 34.6165 104.234 34.6572 104.052C34.6979 103.871 34.7183 103.689 34.759 103.507C34.7997 103.325 34.8201 103.143 34.8812 102.982C34.9423 102.82 35.0034 102.638 35.0645 102.477C35.1255 102.315 35.1866 102.154 35.2477 102.012C35.3292 101.871 35.3903 101.729 35.4513 101.608C35.7161 101.123 35.8993 100.82 35.8993 100.82C35.8993 100.82 35.7772 101.164 35.5939 101.689C35.5532 101.81 35.4921 101.952 35.431 102.093C35.3903 102.234 35.3495 102.396 35.3088 102.558C35.2681 102.719 35.207 102.881 35.1663 103.063C35.1052 103.224 35.0848 103.406 35.0441 103.588C35.0034 103.77 34.9626 103.931 34.9423 104.113C34.9219 104.295 34.9016 104.456 34.8812 104.618C34.8608 104.78 34.8405 104.941 34.8405 105.103C34.8405 105.264 34.8405 105.406 34.8405 105.547C34.8608 105.81 34.8608 106.052 34.8812 106.194C34.9016 106.335 34.9219 106.436 34.9219 106.436Z" fill="#C9976D"/>
<path d="M33.13 103.527C33.13 103.527 33.0893 103.447 33.0689 103.325C33.0485 103.184 33.0282 102.982 33.0078 102.74C33.0282 102.497 33.0078 102.214 33.1096 101.932C33.1504 101.77 33.1911 101.629 33.2114 101.467C33.2725 101.325 33.3336 101.164 33.3947 101.022C33.4558 100.881 33.5169 100.719 33.5983 100.598C33.6798 100.477 33.7612 100.336 33.8427 100.214C33.9241 100.093 34.0056 99.9721 34.087 99.8509C34.1685 99.7499 34.2703 99.6489 34.3517 99.5681C34.6776 99.2247 34.9015 99.0024 34.9015 99.0024C34.9015 99.0024 34.7386 99.2853 34.4943 99.6691C34.4332 99.7701 34.3517 99.8711 34.2907 99.9721C34.2296 100.093 34.1685 100.214 34.1074 100.336C34.0463 100.457 33.9649 100.598 33.8834 100.719C33.802 100.841 33.7612 101.002 33.7001 101.144C33.6391 101.285 33.578 101.426 33.5169 101.568C33.4762 101.709 33.4354 101.851 33.3947 101.992C33.354 102.134 33.3133 102.275 33.2929 102.396C33.2725 102.517 33.2522 102.659 33.2318 102.76C33.2114 102.982 33.1707 103.184 33.1911 103.325C33.13 103.447 33.13 103.527 33.13 103.527Z" fill="#C9976D"/>
<path d="M58.7258 88.2153C58.7258 88.2153 58.624 88.3567 58.4611 88.5183C58.3796 88.5991 58.2778 88.7203 58.176 88.8011C58.0538 88.9021 57.9316 88.9829 57.7891 89.084C57.5244 89.2658 57.2393 89.4274 57.0153 89.5486C56.7913 89.6496 56.6284 89.7102 56.6284 89.7102C56.6284 89.7102 56.7302 89.589 56.9135 89.4072C57.0968 89.2456 57.3411 89.0436 57.6058 88.8618C57.8705 88.6799 58.1556 88.5183 58.3592 88.3971C58.5832 88.2759 58.7258 88.2153 58.7258 88.2153Z" fill="#C9976D"/>
<path d="M52.6375 76.2163C52.6375 76.2163 52.8411 76.3375 53.1262 76.4991C53.2687 76.5799 53.452 76.6809 53.6149 76.7819C53.7981 76.8627 53.9814 76.9839 54.2054 77.0647C54.409 77.1455 54.5923 77.2465 54.7959 77.3273C54.9995 77.3879 55.1624 77.4889 55.3253 77.5293C55.6308 77.6303 55.8547 77.7313 55.8547 77.7313C55.8547 77.7313 55.6308 77.7313 55.2846 77.6909C55.1217 77.6707 54.9181 77.6303 54.7144 77.5697C54.6126 77.5293 54.4904 77.5293 54.3886 77.4687C54.2868 77.4283 54.185 77.3879 54.0832 77.3273C53.8796 77.2465 53.6759 77.1051 53.4927 77.0041C53.3094 76.8829 53.1669 76.7617 53.0447 76.6405C52.78 76.3981 52.6375 76.2163 52.6375 76.2163Z" fill="#C9976D"/>
<path d="M39.4016 94.5383C39.4016 94.5383 39.422 94.3767 39.5034 94.1545C39.5441 94.0333 39.5849 93.9121 39.646 93.7707C39.707 93.6293 39.7885 93.5081 39.8496 93.3667C40.0125 93.0838 40.1754 92.8414 40.3383 92.6394C40.4808 92.4576 40.603 92.3364 40.603 92.3364C40.603 92.3364 40.5623 92.498 40.4808 92.7202C40.3994 92.9424 40.2568 93.2252 40.1143 93.4879C39.9514 93.7505 39.7885 94.0131 39.6663 94.2151C39.5238 94.4171 39.4016 94.5383 39.4016 94.5383Z" fill="#C9976D"/>
<path d="M37.1821 77.9939C38.8925 83.5288 39.6459 89.9929 39.6459 89.9929L30.7678 93.5684C30.7678 93.5684 25.6772 84.8418 30.0144 75.1052C34.3517 65.3484 36.7544 76.5395 37.1821 77.9939Z" fill="#FFF227"/>
<path d="M33.3132 72.8223C30.2385 75.7715 29.9127 81.5691 30.7272 85.3465C31.2566 87.8514 32.1933 90.235 33.3947 92.4773L37.1821 90.9623C35.8993 88.9422 34.7793 86.8212 33.9037 84.5991C32.3765 80.8418 31.5824 76.5997 33.3132 72.8223Z" fill="#FFF298"/>
</g>
<defs>
<clipPath id="clip0_223_3772">
<rect width="73" height="129" fill="white"/>
</clipPath>
</defs>
</svg>
