<svg width="228" height="102" viewBox="0 0 228 102" fill="none" xmlns="http://www.w3.org/2000/svg">
<g filter="url(#filter0_d_334_151)">
<g filter="url(#filter1_d_334_151)">
<path d="M199.218 24.8298C193.32 -3.98375 144.752 1.68 111.115 6.10352e-05C73.1074 1.14416 24.7127 -1.88383 13.3803 22.9942C11.6254 28.1221 12.0484 33.4443 12.0368 38.6507C12.0052 48.7616 11.5408 59.8767 15.457 69.8827C26.1889 95.7371 60.604 94.0608 95.8103 95.3738C117.896 95.1071 137.889 94.9442 160.129 92.4629C188.539 89.7849 196.286 71.0944 197.981 52.9615C199.276 43.3501 201.041 33.1619 199.218 24.8298ZM194.899 52.7418C192.749 89.5942 165.395 91.9802 122.05 92.6391C96.2814 93.3837 67.8095 94.0149 42.8773 88.4212C7.63783 79.9286 14.777 44.8273 16.3826 23.5433C17.333 20.7868 18.9636 18.1861 21.7419 15.8701C48.3129 -3.75686 146.73 0.247463 180.577 8.04975C201.179 16.015 197.395 34.2493 194.899 52.7418Z" fill="#1C1C1C"/>
</g>
<path d="M194.899 52.7406C192.757 89.5845 165.385 91.985 122.048 92.6391C60.0998 93.899 7.29948 96.9487 15.1353 38.6566C12.8545 16.9297 24.5933 9.46776 52.541 4.97104C73.9003 1.7753 157.636 -0.155664 180.579 8.05333C202.721 16.8935 196.579 36.955 194.899 52.7406Z" fill="#FFCE55"/>
<path d="M113.774 77.1467C77.0619 77.1467 43.3933 72.7188 17.1357 65.3486C24.6713 99.2056 86.8732 92.411 122.05 92.6415C147.795 91.9826 184.894 91.9113 190.805 70.0227C168.222 74.5496 141.89 77.1467 113.774 77.1467Z" fill="#FF9B57"/>
<path d="M17.9751 40.911C18.0017 33.0025 16.9467 24.4894 24.5851 18.1245C40.8157 0.179799 169.406 -0.0084703 189.805 13.5891C175.666 -3.36714 35.8064 -1.81633 21.7437 15.8701C14.1053 22.2374 15.1603 30.7505 15.1337 38.6578C15.0939 53.3138 13.9975 72.2336 28.8032 82.5546C16.9865 71.8969 17.937 54.5556 17.9751 40.911Z" fill="#FFF097"/>
<g opacity="0.68">
<path d="M22.3875 33.4588C22.3875 33.4588 21.7787 23.378 28.7454 17.6044C35.712 11.8308 54.8735 5.35364 61.2596 9.43763C68.1167 14.2747 42.6852 18.6447 41.5175 29.3832C41.0862 37.0661 25.3035 43.6917 22.3875 33.4588Z" fill="#FFF097"/>
<path d="M29.3259 42.3871C29.3259 42.3871 20.6475 44.0767 22.3743 48.7243C24.101 53.3706 26.4232 55.9062 32.4228 54.0754C38.4224 52.2447 34.9324 40.0229 29.3259 42.3871Z" fill="#FFF097"/>
<path d="M190.806 51.9804C190.806 51.9804 189.064 65.7807 179.193 68.4563C169.322 71.1319 163.903 70.7095 164.291 67.1891C164.677 63.6687 175.71 65.0771 179.193 57.1916C182.676 49.3048 189.644 44.7996 190.806 51.9804Z" fill="#FFF097"/>
</g>
</g>
<path d="M35.4135 59.1681C35.0402 59.1681 34.7135 59.0374 34.4335 58.7761C34.1535 58.5147 34.0135 58.1881 34.0135 57.7961V41.8081C34.0135 41.2854 34.0788 40.9121 34.2095 40.6881C34.3402 40.4454 34.5828 40.2867 34.9375 40.2121C35.3108 40.1187 35.9082 40.0721 36.7295 40.0721C40.2015 40.0721 42.7962 40.5854 44.5135 41.6121C46.2495 42.6387 47.1175 44.1227 47.1175 46.0641C47.1175 47.6321 46.5668 48.9201 45.4655 49.9281C44.3642 50.9361 43.0295 51.6734 41.4615 52.1401C39.8935 52.6067 38.3348 52.8681 36.7855 52.9241V57.7961C36.7855 58.1881 36.6548 58.5147 36.3935 58.7761C36.1322 59.0374 35.8055 59.1681 35.4135 59.1681ZM36.7855 50.1801C38.6148 50.0681 40.3322 49.7041 41.9375 49.0881C43.5428 48.4534 44.3455 47.4454 44.3455 46.0641C44.3455 45.0374 43.7202 44.2441 42.4695 43.6841C41.2375 43.1241 39.4735 42.8441 37.1775 42.8441H36.7855V50.1801ZM55.3421 59.1401C54.9874 59.1587 54.6701 59.0281 54.3901 58.7481C54.1101 58.4681 53.9701 58.1507 53.9701 57.7961V41.4721C53.9701 41.0987 54.1007 40.7814 54.3621 40.5201C54.6421 40.2401 54.9781 40.1001 55.3701 40.1001C55.7434 40.1001 56.0607 40.2401 56.3221 40.5201C56.6021 40.7814 56.7421 41.0987 56.7421 41.4721V56.3121L64.3581 55.8081C64.7501 55.7894 65.0767 55.9107 65.3381 56.1721C65.5994 56.4147 65.7301 56.7414 65.7301 57.1521C65.7301 57.4881 65.5994 57.8054 65.3381 58.1041C65.0954 58.3841 64.8061 58.5334 64.4701 58.5521L55.3421 59.1401ZM84.5375 59.1961C83.8655 59.1961 83.4269 58.8787 83.2215 58.2441L81.2055 52.4201L75.4935 53.6801L73.6735 58.2721C73.5615 58.5334 73.3935 58.7481 73.1695 58.9161C72.9642 59.0841 72.7029 59.1681 72.3855 59.1681C72.0122 59.1681 71.6855 59.0374 71.4055 58.7761C71.1255 58.5147 70.9855 58.2067 70.9855 57.8521C70.9855 57.6094 71.0509 57.3294 71.1815 57.0121L72.3015 54.2121C72.1895 54.1747 72.1055 54.1374 72.0495 54.1001C71.5642 53.8574 71.3215 53.4467 71.3215 52.8681C71.3215 52.5321 71.4149 52.2427 71.6015 52.0001C71.8069 51.7574 72.0682 51.5987 72.3855 51.5241L73.4215 51.3001L77.5655 40.7721C77.6775 40.4921 77.8549 40.2774 78.0975 40.1281C78.3402 39.9787 78.6015 39.9041 78.8815 39.9041C79.1802 39.9041 79.4415 39.9787 79.6655 40.1281C79.8895 40.2774 80.0575 40.5107 80.1695 40.8281L85.7415 56.9841C85.7602 57.0214 85.7975 57.1334 85.8535 57.3201C85.9095 57.4881 85.9375 57.6654 85.9375 57.8521C85.9375 58.2067 85.8069 58.5241 85.5455 58.8041C85.2842 59.0654 84.9482 59.1961 84.5375 59.1961ZM80.2815 49.8161L78.7695 45.3081L76.6695 50.6001L80.2815 49.8161ZM94.2308 59.1681C93.8575 59.1681 93.5308 59.0281 93.2508 58.7481C92.9895 58.4681 92.8588 58.1507 92.8588 57.7961C92.8588 57.6467 92.8681 57.5254 92.8868 57.4321C92.9241 57.3201 92.9895 57.1801 93.0828 57.0121L95.5188 52.9241L89.3028 42.2841C89.1535 42.0041 89.0788 41.7334 89.0788 41.4721C89.0788 41.0987 89.2095 40.7814 89.4708 40.5201C89.7508 40.2401 90.0868 40.1001 90.4788 40.1001C90.7028 40.1001 90.9175 40.1654 91.1228 40.2961C91.3468 40.4081 91.5241 40.5761 91.6548 40.8001L97.1428 50.1801L102.715 40.7721C102.845 40.5481 103.013 40.3801 103.219 40.2681C103.443 40.1561 103.676 40.1001 103.919 40.1001C104.273 40.1001 104.591 40.2401 104.871 40.5201C105.151 40.7814 105.291 41.0987 105.291 41.4721C105.291 41.6401 105.272 41.7801 105.235 41.8921C105.197 42.0041 105.123 42.1627 105.011 42.3681L95.4348 58.4681C95.3041 58.6921 95.1268 58.8694 94.9028 59.0001C94.6975 59.1121 94.4735 59.1681 94.2308 59.1681ZM112.04 59.0001C111.648 59.0001 111.312 58.8694 111.032 58.6081C110.77 58.3281 110.64 57.9921 110.64 57.6001C110.64 57.2081 110.77 56.8814 111.032 56.6201C111.312 56.3401 111.648 56.2001 112.04 56.2001H114V43.0401H112.04C111.648 43.0401 111.312 42.9001 111.032 42.6201C110.77 42.3401 110.64 42.0041 110.64 41.6121C110.64 41.2201 110.77 40.8934 111.032 40.6321C111.312 40.3707 111.648 40.2401 112.04 40.2401H118.732C119.124 40.2401 119.45 40.3707 119.712 40.6321C119.973 40.8934 120.104 41.2201 120.104 41.6121C120.104 42.0041 119.973 42.3401 119.712 42.6201C119.45 42.9001 119.124 43.0401 118.732 43.0401H116.8V56.2001H118.732C119.142 56.2001 119.469 56.3401 119.712 56.6201C119.973 56.8814 120.104 57.2081 120.104 57.6001C120.104 57.9921 119.973 58.3281 119.712 58.6081C119.45 58.8694 119.124 59.0001 118.732 59.0001H112.04ZM129.043 59.1681C128.689 59.1681 128.371 59.0281 128.091 58.7481C127.811 58.4681 127.671 58.1507 127.671 57.7961L127.699 41.4721C127.699 41.0987 127.821 40.7814 128.063 40.5201C128.325 40.2401 128.651 40.1001 129.043 40.1001C129.267 40.1001 129.482 40.1561 129.687 40.2681C129.893 40.3614 130.061 40.5014 130.191 40.6881L138.955 53.3721V41.4721C138.955 41.0987 139.086 40.7721 139.347 40.4921C139.627 40.2121 139.963 40.0721 140.355 40.0721C140.729 40.0721 141.046 40.2121 141.307 40.4921C141.587 40.7721 141.727 41.0987 141.727 41.4721V57.7961C141.727 58.1881 141.597 58.5147 141.335 58.7761C141.074 59.0374 140.747 59.1681 140.355 59.1681C140.15 59.1681 139.935 59.1121 139.711 59.0001C139.506 58.8881 139.338 58.7387 139.207 58.5521L130.471 45.9241L130.443 57.7961C130.443 58.1881 130.303 58.5147 130.023 58.7761C129.762 59.0374 129.435 59.1681 129.043 59.1681ZM157.949 59.1961C156.269 59.1961 154.776 58.7574 153.469 57.8801C152.181 57.0027 151.182 55.8547 150.473 54.4361C149.782 52.9987 149.437 51.4774 149.437 49.8721C149.437 48.2854 149.81 46.7361 150.557 45.2241C151.304 43.6934 152.349 42.4521 153.693 41.5001C155.056 40.5294 156.614 40.0441 158.369 40.0441C160.012 40.0441 161.393 40.3987 162.513 41.1081C163.652 41.7987 164.501 42.5921 165.061 43.4881C165.621 44.3841 165.901 45.0934 165.901 45.6161C165.901 46.0081 165.78 46.3254 165.537 46.5681C165.294 46.7921 164.968 46.9041 164.557 46.9041C163.885 46.9041 163.437 46.6054 163.213 46.0081C162.877 45.1121 162.317 44.3654 161.533 43.7681C160.749 43.1521 159.694 42.8441 158.369 42.8441C156.988 42.8441 155.83 43.2547 154.897 44.0761C153.982 44.8787 153.31 45.8307 152.881 46.9321C152.452 48.0334 152.237 49.0134 152.237 49.8721C152.237 50.8801 152.452 51.8881 152.881 52.8961C153.31 53.9041 153.954 54.7441 154.813 55.4161C155.69 56.0694 156.736 56.3961 157.949 56.3961C159.144 56.3961 160.189 56.0974 161.085 55.5001C161.981 54.8841 162.644 54.0254 163.073 52.9241H162.653C162.018 52.9614 161.318 53.0734 160.553 53.2601C160.236 53.3534 159.984 53.4001 159.797 53.4001C159.424 53.4001 159.097 53.2787 158.817 53.0361C158.556 52.7747 158.425 52.4294 158.425 52.0001C158.425 51.3654 158.761 50.9081 159.433 50.6281C159.75 50.4974 160.264 50.3854 160.973 50.2921C161.701 50.1987 162.438 50.1521 163.185 50.1521C164.249 50.1521 165.285 50.3107 166.293 50.6281C166.89 50.8147 167.189 51.2534 167.189 51.9441C167.189 52.2614 167.096 52.5414 166.909 52.7841C166.722 53.0081 166.489 53.1667 166.209 53.2601C166.06 53.2974 165.948 53.3161 165.873 53.3161C165.35 55.0521 164.389 56.4707 162.989 57.5721C161.608 58.6547 159.928 59.1961 157.949 59.1961Z" fill="white"/>
<defs>
<filter id="filter0_d_334_151" x="8.87907" y="6.10352e-05" width="194.242" height="101.616" filterUnits="userSpaceOnUse" color-interpolation-filters="sRGB">
<feFlood flood-opacity="0" result="BackgroundImageFix"/>
<feColorMatrix in="SourceAlpha" type="matrix" values="0 0 0 0 0 0 0 0 0 0 0 0 0 0 0 0 0 0 127 0" result="hardAlpha"/>
<feOffset dy="3.12093"/>
<feGaussianBlur stdDeviation="1.56046"/>
<feComposite in2="hardAlpha" operator="out"/>
<feColorMatrix type="matrix" values="0 0 0 0 0 0 0 0 0 0 0 0 0 0 0 0 0 0 0.1 0"/>
<feBlend mode="normal" in2="BackgroundImageFix" result="effect1_dropShadow_334_151"/>
<feBlend mode="normal" in="SourceGraphic" in2="effect1_dropShadow_334_151" result="shape"/>
</filter>
<filter id="filter1_d_334_151" x="12" y="6.10352e-05" width="192" height="99.3738" filterUnits="userSpaceOnUse" color-interpolation-filters="sRGB">
<feFlood flood-opacity="0" result="BackgroundImageFix"/>
<feColorMatrix in="SourceAlpha" type="matrix" values="0 0 0 0 0 0 0 0 0 0 0 0 0 0 0 0 0 0 127 0" result="hardAlpha"/>
<feOffset dx="4" dy="4"/>
<feComposite in2="hardAlpha" operator="out"/>
<feColorMatrix type="matrix" values="0 0 0 0 0 0 0 0 0 0 0 0 0 0 0 0 0 0 0.25 0"/>
<feBlend mode="normal" in2="BackgroundImageFix" result="effect1_dropShadow_334_151"/>
<feBlend mode="normal" in="SourceGraphic" in2="effect1_dropShadow_334_151" result="shape"/>
</filter>
</defs>
</svg>
