<svg width="147" height="34" viewBox="0 0 147 34" fill="none" xmlns="http://www.w3.org/2000/svg">
<path d="M138.272 8.94385C142.25 8.94385 145.474 12.1553 145.499 16.1255C145.573 18.4014 145.734 21.3558 144.959 23.7524C144.557 24.9973 143.88 26.1785 142.75 27.064C141.617 27.9512 140.15 28.4465 138.338 28.5327L138.305 28.5347H35.605L35.5708 28.5327C33.7646 28.4419 32.3017 27.947 31.1704 27.064C30.0411 26.1825 29.3618 25.0073 28.9565 23.7651C28.1763 21.3732 28.3332 18.4229 28.4136 16.1226C28.4397 12.1534 31.6649 8.94385 35.6401 8.94385H138.272Z" fill="white" stroke="#DB8686" stroke-width="2.76585"/>
<path d="M37.3618 5.74278C31.8842 0.396825 24.2159 1.93228 17.6569 1.12609C12.0595 1.03142 5.72099 -0.125345 1.73002 4.98393C-0.00808258 7.62288 0.306994 10.2249 0.204927 12.778C0.0806713 15.488 0.0880675 17.8917 0.231553 20.1298C0.0747544 34.4577 8.54929 33.1352 22.1331 33.8867C38.2982 34.2092 37.5097 27.2775 39.026 17.6684C39.3114 14.2365 39.4742 8.11843 37.3618 5.74278ZM33.3916 28.7789C30.1343 32.9977 10.7326 30.9356 6.39257 29.5806C1.62351 27.35 2.95187 17.3163 2.79507 12.8978C2.89566 10.7426 2.60129 8.32257 3.87787 6.43803C7.6721 2.03879 14.586 3.87598 19.719 3.8316C24.9155 4.41294 31.4345 3.51061 35.427 7.46313C37.597 9.9083 36.6459 24.5601 33.3916 28.7789Z" fill="#DB8686"/>
<path d="M33.3915 28.779C30.1342 32.9978 10.7326 30.9357 6.39253 29.5807C1.62347 27.35 2.95183 17.3164 2.79503 12.8979C2.89561 10.7427 2.60125 8.32266 3.87783 6.43811C7.67206 2.03887 14.586 3.87606 19.7189 3.83168C24.9155 4.41302 31.4345 3.5107 35.4269 7.46321C37.597 9.90839 36.6458 24.5602 33.3915 28.779Z" fill="#FFDBB3"/>
<path d="M36.0987 20.4318C35.5794 23.905 34.6594 27.1356 33.3917 28.7791C30.1344 32.9993 10.7327 30.9373 6.39266 29.5808C3.32917 28.6238 3.01409 23.2364 2.84546 20.4199C6.50509 21.4495 15.0639 22.4154 15.0639 22.4154C15.0639 22.4154 19.4661 22.6994 23.8743 22.4213C28.2824 22.1432 32.4183 21.4524 36.0987 20.4318Z" fill="#FFB392"/>
<path d="M28.3952 15.0198C28.172 14.3307 27.5876 13.8386 26.8711 13.734L22.9483 13.1637L21.1938 9.6079C20.8739 8.95791 20.2249 8.55469 19.5005 8.55469C18.7761 8.55469 18.1277 8.95791 17.8064 9.6079L16.0519 13.1637L12.1292 13.734C11.4126 13.8379 10.8283 14.3307 10.6051 15.0198C10.3818 15.7096 10.5645 16.4506 11.0828 16.9563L13.9207 19.7241L13.251 23.6326C13.1565 24.1837 13.3079 24.7427 13.6655 25.1673C14.22 25.8421 15.2237 26.0405 15.9908 25.6238L19.4998 23.7784L23.008 25.6238C23.7758 26.0398 24.7796 25.8421 25.3334 25.1673C25.6917 24.7427 25.8424 24.183 25.7478 23.6326L25.0782 19.7241L27.9168 16.9563C28.4365 16.4513 28.6199 15.7089 28.3952 15.0198ZM27.1128 16.1299C23.0443 20.2141 23.7339 18.1581 24.6125 23.8281C24.7149 24.4284 24.0851 24.8863 23.5462 24.6026C23.0543 24.4824 19.6384 22.1911 19.1585 22.6547L15.4548 24.6026C14.9159 24.8863 14.2861 24.4284 14.3892 23.8281C14.3515 23.3232 15.474 19.3649 14.8854 19.052L11.8889 16.1299C11.4524 15.7053 11.6927 14.9643 12.2956 14.8761C12.764 14.6841 16.8744 14.5298 16.9896 13.872L18.8415 10.1185C19.1109 9.57235 19.8901 9.57235 20.1595 10.1185L22.0114 13.872C22.1123 14.5206 26.2625 14.6941 26.7047 14.8761C27.3083 14.9643 27.5492 15.7053 27.1128 16.1299Z" fill="#F26D6D"/>
<path d="M24.1165 19.0528C23.5321 19.3494 24.6482 23.3518 24.6127 23.829C24.7151 24.4292 24.0859 24.8872 23.5464 24.6034C18.4315 21.9992 20.5485 22.0205 15.4549 24.6034C14.9161 24.8864 14.2862 24.4285 14.3893 23.8282L15.0966 19.7028C15.3945 19.119 12.1407 16.5375 11.8891 16.13C11.4526 15.7054 11.6929 14.9644 12.2957 14.8762L16.4367 14.2746C16.6756 14.2397 16.8824 14.089 16.9898 13.8721L18.8417 10.1186C19.1111 9.57244 19.8902 9.57244 20.1597 10.1186C20.4867 10.5048 21.9042 14.3678 22.5646 14.2746L26.7049 14.8762C27.3077 14.9644 27.5487 15.7047 27.1122 16.13L24.1165 19.0528Z" fill="#FFCE55"/>
<path d="M23.9052 19.7043C23.8888 19.6083 23.8924 19.5123 23.913 19.4205C21.2016 20.1807 17.7758 20.1658 15.0787 19.3821C15.2365 19.3416 14.3756 23.7266 14.3891 23.8297C14.286 24.4299 14.9159 24.8879 15.4547 24.6041C20.5625 22.0056 18.4483 22.0162 23.5462 24.6041C24.0857 24.8872 24.7149 24.4292 24.6125 23.829L23.9052 19.7043Z" fill="#FF9B57"/>
</svg>
