<svg width="40" height="34" viewBox="0 0 40 34" fill="none" xmlns="http://www.w3.org/2000/svg">
<path d="M37.2454 5.74278C31.7678 0.396825 24.0994 1.93228 17.5405 1.12609C11.9431 1.03142 5.60454 -0.125345 1.61356 4.98393C-0.124538 7.62288 0.190539 10.2249 0.0884719 12.778C-0.0357838 15.488 -0.0283876 17.8917 0.115098 20.1298C-0.0417007 34.4577 8.43283 33.1352 22.0166 33.8867C38.1817 34.2092 37.3933 27.2775 38.9095 17.6684C39.195 14.2365 39.3577 8.11843 37.2454 5.74278ZM33.2751 28.7789C30.0178 32.9977 10.6162 30.9356 6.27611 29.5806C1.50706 27.35 2.83541 17.3163 2.67861 12.8978C2.7792 10.7426 2.48483 8.32257 3.76141 6.43803C7.55565 2.03879 14.4696 3.87598 19.6025 3.8316C24.7991 4.41294 31.3181 3.51061 35.3105 7.46313C37.4806 9.9083 36.5294 24.5601 33.2751 28.7789Z" fill="#DB8686"/>
<path d="M33.2751 28.7789C30.0178 32.9976 10.6161 30.9356 6.27607 29.5806C1.50702 27.3499 2.83537 17.3163 2.67857 12.8978C2.77916 10.7425 2.48479 8.32253 3.76137 6.43799C7.55561 2.03875 14.4695 3.87594 19.6025 3.83156C24.799 4.4129 31.318 3.51057 35.3105 7.46309C37.4805 9.90826 36.5294 24.5601 33.2751 28.7789Z" fill="#FFDBB3"/>
<path d="M35.9822 20.4316C35.463 23.9049 34.5429 27.1355 33.2752 28.779C30.0179 32.9992 10.6163 30.9372 6.27621 29.5807C3.21271 28.6236 2.89764 23.2363 2.729 20.4198C6.38863 21.4493 14.9475 22.4153 14.9475 22.4153C14.9475 22.4153 19.3497 22.6993 23.7578 22.4212C28.1659 22.1431 32.3019 21.4523 35.9822 20.4316Z" fill="#FFB392"/>
<path d="M28.2788 15.0199C28.0555 14.3308 27.4712 13.8387 26.7546 13.7341L22.8319 13.1638L21.0774 9.60802C20.7575 8.95803 20.1084 8.55481 19.384 8.55481C18.6596 8.55481 18.0113 8.95803 17.69 9.60802L15.9355 13.1638L12.0128 13.7341C11.2962 13.838 10.7118 14.3308 10.4886 15.0199C10.2654 15.7097 10.4481 16.4508 10.9663 16.9564L13.8042 19.7242L13.1346 23.6327C13.04 24.1838 13.1914 24.7428 13.549 25.1674C14.1035 25.8423 15.1073 26.0407 15.8743 25.6239L19.3833 23.7785L22.8916 25.6239C23.6594 26.04 24.6631 25.8423 25.2169 25.1674C25.5752 24.7428 25.7259 24.1831 25.6314 23.6327L24.9617 19.7242L27.8003 16.9564C28.32 16.4515 28.5034 15.709 28.2788 15.0199ZM26.9963 16.13C22.9278 20.2142 23.6174 18.1582 24.4961 23.8283C24.5985 24.4285 23.9686 24.8865 23.4297 24.6027C22.9378 24.4825 19.5219 22.1912 19.0421 22.6549L15.3383 24.6027C14.7995 24.8865 14.1696 24.4285 14.2727 23.8283C14.235 23.3233 15.3575 19.3651 14.7689 19.0522L11.7725 16.13C11.336 15.7055 11.5763 14.9644 12.1791 14.8763C12.6476 14.6842 16.758 14.5299 16.8731 13.8721L18.725 10.1186C18.9945 9.57247 19.7736 9.57247 20.043 10.1186L21.8949 13.8721C21.9959 14.5207 26.1461 14.6942 26.5883 14.8763C27.1918 14.9644 27.4328 15.7055 26.9963 16.13Z" fill="#F26D6D"/>
<path d="M23.9998 19.0532C23.4154 19.3498 24.5315 23.3521 24.496 23.8293C24.5984 24.4295 23.9692 24.8875 23.4297 24.6038C18.3148 21.9995 20.4318 22.0209 15.3382 24.6038C14.7994 24.8868 14.1695 24.4288 14.2726 23.8286L14.9799 19.7032C15.2778 19.1194 12.024 16.5379 11.7724 16.1304C11.3359 15.7058 11.5762 14.9648 12.179 14.8766L16.32 14.275C16.5589 14.2401 16.7657 14.0893 16.8731 13.8724L18.725 10.119C18.9944 9.57281 19.7735 9.57281 20.043 10.119C20.37 10.5051 21.7875 14.3681 22.4479 14.275L26.5882 14.8766C27.191 14.9648 27.432 15.7051 26.9955 16.1304L23.9998 19.0532Z" fill="#FFCE55"/>
<path d="M23.7889 19.7043C23.7726 19.6083 23.7761 19.5123 23.7968 19.4205C21.0854 20.1807 17.6596 20.1658 14.9625 19.3821C15.1203 19.3416 14.2594 23.7266 14.2729 23.8297C14.1698 24.4299 14.7997 24.8879 15.3385 24.6041C20.4463 22.0056 18.3321 22.0162 23.4299 24.6041C23.9695 24.8872 24.5987 24.4292 24.4963 23.829L23.7889 19.7043Z" fill="#FF9B57"/>
</svg>
