<svg width="156" height="100" viewBox="0 0 156 100" fill="none" xmlns="http://www.w3.org/2000/svg">
<mask id="path-1-inside-1_223_3757" fill="white">
<path d="M-3.64811e-06 15.9134C-3.31642e-06 7.12489 7.12455 0.000335382 15.9131 0.000334998L140.087 0.00032957C148.875 0.000550438 156 7.12502 156 15.9134L156 67.8031C156 76.5915 148.875 83.7159 140.087 83.7162L78.2021 83.7162L43.1621 99.0296C40.151 100.346 36.9257 97.6707 37.6621 94.4681L40.1338 83.7162L15.9131 83.7162C7.12455 83.7162 -1.71164e-06 76.5916 -1.37995e-06 67.8031L-3.64811e-06 15.9134Z"/>
</mask>
<path d="M-3.64811e-06 15.9134C-3.31642e-06 7.12489 7.12455 0.000335382 15.9131 0.000334998L140.087 0.00032957C148.875 0.000550438 156 7.12502 156 15.9134L156 67.8031C156 76.5915 148.875 83.7159 140.087 83.7162L78.2021 83.7162L43.1621 99.0296C40.151 100.346 36.9257 97.6707 37.6621 94.4681L40.1338 83.7162L15.9131 83.7162C7.12455 83.7162 -1.71164e-06 76.5916 -1.37995e-06 67.8031L-3.64811e-06 15.9134Z" fill="url(#paint0_linear_223_3757)"/>
<path d="M-3.64811e-06 15.9134L-2 15.9134L-3.64811e-06 15.9134ZM15.9131 0.000334998L15.9131 2.00033L15.9131 0.000334998ZM140.087 0.00032957L140.087 -1.99967L140.087 -1.99967L140.087 0.00032957ZM156 15.9134L154 15.9134L156 15.9134ZM156 67.8031L158 67.8031L156 67.8031ZM140.087 83.7162L140.087 85.7162L140.087 85.7162L140.087 83.7162ZM78.2021 83.7162L78.2021 81.7162L77.7842 81.7162L77.4012 81.8835L78.2021 83.7162ZM43.1621 99.0296L42.3612 97.197L42.3612 97.197L43.1621 99.0296ZM37.6621 94.4681L39.6112 94.9163L39.6113 94.9162L37.6621 94.4681ZM40.1338 83.7162L42.0829 84.1642L42.6457 81.7162L40.1338 81.7162L40.1338 83.7162ZM15.9131 83.7162L15.9131 85.7162L15.9131 83.7162ZM-1.37995e-06 67.8031L2 67.8031L-1.37995e-06 67.8031ZM-3.64811e-06 15.9134L2 15.9134C2 8.22946 8.22912 2.00034 15.9131 2.00033L15.9131 0.000334998L15.9131 -1.99967C6.01998 -1.99966 -2 6.02032 -2 15.9134L-3.64811e-06 15.9134ZM15.9131 0.000334998L15.9131 2.00033L140.087 2.00033L140.087 0.00032957L140.087 -1.99967L15.9131 -1.99967L15.9131 0.000334998ZM140.087 0.00032957L140.087 2.00033C147.771 2.00052 154 8.22964 154 15.9134L156 15.9134L158 15.9134C158 6.0204 149.98 -1.99943 140.087 -1.99967L140.087 0.00032957ZM156 15.9134L154 15.9134L154 67.8031L156 67.8031L158 67.8031L158 15.9134L156 15.9134ZM156 67.8031L154 67.8031C154 75.4868 147.771 81.716 140.087 81.7162L140.087 83.7162L140.087 85.7162C149.98 85.7159 158 77.6961 158 67.8031L156 67.8031ZM140.087 83.7162L140.087 81.7162L78.2021 81.7162L78.2021 83.7162L78.2021 85.7162L140.087 85.7162L140.087 83.7162ZM78.2021 83.7162L77.4012 81.8835L42.3612 97.197L43.1621 99.0296L43.963 100.862L79.0031 85.5488L78.2021 83.7162ZM43.1621 99.0296L42.3612 97.197C40.8556 97.855 39.243 96.5176 39.6112 94.9163L37.6621 94.4681L35.713 94.0199C34.6083 98.8238 39.4464 102.836 43.963 100.862L43.1621 99.0296ZM37.6621 94.4681L39.6113 94.9162L42.0829 84.1642L40.1338 83.7162L38.1846 83.2681L35.7129 94.02L37.6621 94.4681ZM40.1338 83.7162L40.1338 81.7162L15.9131 81.7162L15.9131 83.7162L15.9131 85.7162L40.1338 85.7162L40.1338 83.7162ZM15.9131 83.7162L15.9131 81.7162C8.22912 81.7162 2 75.487 2 67.8031L-1.37995e-06 67.8031L-2 67.8031C-2 77.6962 6.01998 85.7162 15.9131 85.7162L15.9131 83.7162ZM-1.37995e-06 67.8031L2 67.8031L2 15.9134L-3.64811e-06 15.9134L-2 15.9134L-2 67.8031L-1.37995e-06 67.8031Z" fill="#1C1C1C" mask="url(#path-1-inside-1_223_3757)"/>
<defs>
<linearGradient id="paint0_linear_223_3757" x1="77.9136" y1="-10.855" x2="77.9136" y2="108.037" gradientUnits="userSpaceOnUse">
<stop stop-color="#FFCE55"/>
<stop offset="1" stop-color="#FF9B57"/>
</linearGradient>
</defs>
</svg>
