<svg width="256" height="58" viewBox="0 0 256 58" fill="none" xmlns="http://www.w3.org/2000/svg">
<g filter="url(#filter0_d_334_153)">
<path d="M20.7466 12.6918C23.2323 6.19666 30.0984 3.00006 37.0529 3.00006L229.937 3.00005C237.451 3.00005 244.822 6.76375 246.901 13.9846C247.552 16.2451 248 18.6531 248 21.0001C248 23.9572 247.289 27.9588 246.357 31.9356C244.214 41.075 235.7 47.0001 226.312 47.0001L40.8656 47.0001C31.8842 47.0001 23.6521 41.5768 21.1964 32.9377C19.9746 28.6392 19 24.2059 19 21.0001C19 18.1994 19.7438 15.3119 20.7466 12.6918Z" fill="url(#paint0_linear_334_153)"/>
<path d="M229.938 1.50005C237.853 1.50022 246.014 5.4814 248.343 13.5694C249.019 15.9177 249.5 18.4708 249.5 21.0001C249.5 24.1405 248.754 28.2844 247.817 32.2784C245.495 42.1842 236.301 48.5 226.312 48.5001L40.8652 48.5001C31.3092 48.4999 22.4178 42.7193 19.7539 33.3477C18.5288 29.0379 17.5 24.431 17.5 21.0001C17.5 17.9498 18.3063 14.8713 19.3457 12.1553C22.1303 4.87963 29.7232 1.50012 37.0527 1.50006L229.938 1.50005Z" stroke="#360301" stroke-width="3"/>
</g>
<path d="M71.6411 33.1681C71.2491 33.1681 70.9225 33.0374 70.6611 32.7761C70.3998 32.5147 70.2691 32.1881 70.2691 31.7961V15.7521C70.2691 15.2481 70.3158 14.8841 70.4091 14.6601C70.5211 14.4361 70.7265 14.2867 71.0251 14.2121C71.3425 14.1187 71.8371 14.0721 72.5091 14.0721H73.6571C76.7931 14.0721 79.2105 14.5947 80.9091 15.6401C82.6078 16.6854 83.4571 18.1507 83.4571 20.0361C83.4571 22.4254 82.0758 24.2361 79.3131 25.4681C81.2918 27.0361 82.8411 28.9307 83.9611 31.1521C84.0545 31.3387 84.1011 31.5534 84.1011 31.7961C84.1011 32.1694 83.9705 32.4961 83.7091 32.7761C83.4665 33.0374 83.1398 33.1681 82.7291 33.1681C82.2065 33.1681 81.7958 32.9254 81.4971 32.4401C79.0331 28.5201 76.8305 26.5601 74.8891 26.5601C74.3105 26.5601 73.6851 26.6161 73.0131 26.7281V31.7961C73.0131 32.1881 72.8731 32.5147 72.5931 32.7761C72.3318 33.0374 72.0145 33.1681 71.6411 33.1681ZM73.0131 24.1521C75.0291 24.0214 76.8118 23.6107 78.3611 22.9201C79.9105 22.2294 80.6851 21.2681 80.6851 20.0361C80.6851 18.9721 80.0598 18.1601 78.8091 17.6001C77.5771 17.0401 75.8318 16.7601 73.5731 16.7601H73.0131V24.1521ZM92.4734 33.0001C92.0814 33.0001 91.7454 32.8694 91.4654 32.6081C91.204 32.3281 91.0734 31.9921 91.0734 31.6001V15.6401C91.0734 15.2481 91.204 14.9214 91.4654 14.6601C91.7454 14.3801 92.0814 14.2401 92.4734 14.2401H103.645C104.037 14.2401 104.364 14.3801 104.625 14.6601C104.887 14.9214 105.017 15.2481 105.017 15.6401C105.017 16.0321 104.887 16.3681 104.625 16.6481C104.364 16.9094 104.037 17.0401 103.645 17.0401H93.8454V21.8561H102.357C102.749 21.8561 103.076 21.9867 103.337 22.2481C103.599 22.5094 103.729 22.8361 103.729 23.2281C103.729 23.6201 103.599 23.9561 103.337 24.2361C103.076 24.4974 102.749 24.6281 102.357 24.6281H93.8454V30.2001H103.589C103.981 30.2001 104.308 30.3401 104.569 30.6201C104.831 30.8814 104.961 31.2081 104.961 31.6001C104.961 31.9921 104.831 32.3281 104.569 32.6081C104.308 32.8694 103.981 33.0001 103.589 33.0001H92.4734ZM113.551 33.1681C113.178 33.1681 112.851 33.0374 112.571 32.7761C112.291 32.5147 112.151 32.1881 112.151 31.7961V15.8081C112.151 15.2854 112.216 14.9121 112.347 14.6881C112.478 14.4454 112.72 14.2867 113.075 14.2121C113.448 14.1187 114.046 14.0721 114.867 14.0721C118.339 14.0721 120.934 14.5854 122.651 15.6121C124.387 16.6387 125.255 18.1227 125.255 20.0641C125.255 21.6321 124.704 22.9201 123.603 23.9281C122.502 24.9361 121.167 25.6734 119.599 26.1401C118.031 26.6067 116.472 26.8681 114.923 26.9241V31.7961C114.923 32.1881 114.792 32.5147 114.531 32.7761C114.27 33.0374 113.943 33.1681 113.551 33.1681ZM114.923 24.1801C116.752 24.0681 118.47 23.7041 120.075 23.0881C121.68 22.4534 122.483 21.4454 122.483 20.0641C122.483 19.0374 121.858 18.2441 120.607 17.6841C119.375 17.1241 117.611 16.8441 115.315 16.8441H114.923V24.1801ZM138.38 33.1681C136.998 33.1681 135.757 32.7854 134.656 32.0201C133.554 31.2361 132.686 30.1721 132.052 28.8281C131.436 27.4841 131.128 25.9814 131.128 24.3201C131.128 22.4347 131.51 20.7081 132.276 19.1401C133.041 17.5721 134.058 16.3401 135.328 15.4441C136.616 14.5294 137.997 14.0721 139.472 14.0721C140.853 14.0721 142.094 14.4547 143.196 15.2201C144.316 15.9854 145.184 17.0401 145.8 18.3841C146.434 19.7281 146.752 21.2401 146.752 22.9201C146.752 24.8241 146.369 26.5601 145.604 28.1281C144.838 29.6774 143.812 30.9094 142.524 31.8241C141.254 32.7201 139.873 33.1681 138.38 33.1681ZM138.38 30.5081C139.388 30.5081 140.312 30.1907 141.152 29.5561C142.01 28.9214 142.692 28.0347 143.196 26.8961C143.7 25.7574 143.952 24.4694 143.952 23.0321C143.952 21.7254 143.728 20.5961 143.28 19.6441C142.85 18.6921 142.272 17.9734 141.544 17.4881C140.834 16.9841 140.088 16.7321 139.304 16.7321C138.333 16.7321 137.437 17.0587 136.616 17.7121C135.794 18.3654 135.141 19.2707 134.656 20.4281C134.17 21.5667 133.928 22.8641 133.928 24.3201C133.928 25.6267 134.133 26.7467 134.544 27.6801C134.954 28.6134 135.496 29.3227 136.168 29.8081C136.858 30.2747 137.596 30.5081 138.38 30.5081ZM155.815 33.1681C155.423 33.1681 155.096 33.0374 154.835 32.7761C154.574 32.5147 154.443 32.1881 154.443 31.7961V15.7521C154.443 15.2481 154.49 14.8841 154.583 14.6601C154.695 14.4361 154.9 14.2867 155.199 14.2121C155.516 14.1187 156.011 14.0721 156.683 14.0721H157.831C160.967 14.0721 163.384 14.5947 165.083 15.6401C166.782 16.6854 167.631 18.1507 167.631 20.0361C167.631 22.4254 166.25 24.2361 163.487 25.4681C165.466 27.0361 167.015 28.9307 168.135 31.1521C168.228 31.3387 168.275 31.5534 168.275 31.7961C168.275 32.1694 168.144 32.4961 167.883 32.7761C167.64 33.0374 167.314 33.1681 166.903 33.1681C166.38 33.1681 165.97 32.9254 165.671 32.4401C163.207 28.5201 161.004 26.5601 159.063 26.5601C158.484 26.5601 157.859 26.6161 157.187 26.7281V31.7961C157.187 32.1881 157.047 32.5147 156.767 32.7761C156.506 33.0374 156.188 33.1681 155.815 33.1681ZM157.187 24.1521C159.203 24.0214 160.986 23.6107 162.535 22.9201C164.084 22.2294 164.859 21.2681 164.859 20.0361C164.859 18.9721 164.234 18.1601 162.983 17.6001C161.751 17.0401 160.006 16.7601 157.747 16.7601H157.187V24.1521ZM180.483 33.1681C180.11 33.1681 179.783 33.0374 179.503 32.7761C179.223 32.4961 179.083 32.1694 179.083 31.7961V17.0401H174.687C174.314 17.0401 173.987 16.9001 173.707 16.6201C173.446 16.3401 173.315 16.0134 173.315 15.6401C173.315 15.2481 173.446 14.9214 173.707 14.6601C173.987 14.3987 174.314 14.2681 174.687 14.2681H186.279C186.671 14.2681 186.998 14.3987 187.259 14.6601C187.521 14.9214 187.651 15.2481 187.651 15.6401C187.651 16.0321 187.521 16.3681 187.259 16.6481C186.998 16.9094 186.671 17.0401 186.279 17.0401H181.855V31.7961C181.855 32.1694 181.715 32.4961 181.435 32.7761C181.174 33.0374 180.857 33.1681 180.483 33.1681Z" fill="white"/>
<defs>
<filter id="filter0_d_334_153" x="16" y="6.10352e-05" width="239" height="58" filterUnits="userSpaceOnUse" color-interpolation-filters="sRGB">
<feFlood flood-opacity="0" result="BackgroundImageFix"/>
<feColorMatrix in="SourceAlpha" type="matrix" values="0 0 0 0 0 0 0 0 0 0 0 0 0 0 0 0 0 0 127 0" result="hardAlpha"/>
<feOffset dx="4" dy="8"/>
<feComposite in2="hardAlpha" operator="out"/>
<feColorMatrix type="matrix" values="0 0 0 0 0 0 0 0 0 0 0 0 0 0 0 0 0 0 0.15 0"/>
<feBlend mode="normal" in2="BackgroundImageFix" result="effect1_dropShadow_334_153"/>
<feBlend mode="normal" in="SourceGraphic" in2="effect1_dropShadow_334_153" result="shape"/>
</filter>
<linearGradient id="paint0_linear_334_153" x1="134" y1="3.00006" x2="133" y2="73.5001" gradientUnits="userSpaceOnUse">
<stop stop-color="#FFCE55"/>
<stop offset="1" stop-color="#FF9B57"/>
</linearGradient>
</defs>
</svg>
